<?xml version="1.0" encoding="UTF-8"?>
<!DOCTYPE svg PUBLIC "-//W3C//DTD SVG 1.1//EN" "http://www.w3.org/Graphics/SVG/1.1/DTD/svg11.dtd">
<svg xmlns="http://www.w3.org/2000/svg" version="1.1" width="384px" height="387px" style="shape-rendering:geometricPrecision; text-rendering:geometricPrecision; image-rendering:optimizeQuality; fill-rule:evenodd; clip-rule:evenodd" xmlns:xlink="http://www.w3.org/1999/xlink">
<g><path style="opacity:0.855" fill="#0d0c03" d="M 63.5,14.5 C 68.8437,14.334 74.1771,14.5006 79.5,15C 91.3333,22.8333 101.167,32.6667 109,44.5C 113.115,52.421 117.948,59.7543 123.5,66.5C 142.063,60.1993 156.229,65.5326 166,82.5C 170.493,91.6486 173.16,101.315 174,111.5C 191.167,82.3333 214.333,59.1667 243.5,42C 254.534,35.0439 266.534,31.2105 279.5,30.5C 287.192,30.3415 294.192,32.5081 300.5,37C 311.661,49.1534 315.494,63.3201 312,79.5C 303.112,113.813 282.945,138.979 251.5,155C 269.661,154.714 284.828,161.214 297,174.5C 311.076,197.779 307.909,218.279 287.5,236C 280.621,239.606 273.621,242.939 266.5,246C 270,250.833 273.5,255.667 277,260.5C 281.495,254.832 286.995,250.499 293.5,247.5C 295.5,248.5 297.5,249.5 299.5,250.5C 306.139,260.305 312.972,269.972 320,279.5C 320.287,294.781 318.287,309.781 314,324.5C 313.215,326.286 312.049,327.786 310.5,329C 303.949,332.109 297.282,334.942 290.5,337.5C 288.604,346.481 286.77,355.481 285,364.5C 283.877,367.249 282.377,369.749 280.5,372C 270.223,376.984 259.556,380.317 248.5,382C 241.025,377.76 240.025,372.427 245.5,366C 244.551,365.383 243.718,365.549 243,366.5C 237.167,362.667 231.333,358.833 225.5,355C 223.07,352.805 221.403,350.138 220.5,347C 223.211,334.203 225.877,321.37 228.5,308.5C 223.52,302.353 218.354,296.353 213,290.5C 210.921,295.909 207.421,300.075 202.5,303C 204.043,305.33 204.543,307.83 204,310.5C 192.952,338.875 174.619,361.208 149,377.5C 143.802,376.138 140.969,372.805 140.5,367.5C 141.822,362.929 142.655,358.262 143,353.5C 143.586,337.495 143.419,321.495 142.5,305.5C 142.667,301.167 142.833,296.833 143,292.5C 143.638,291.391 144.138,290.225 144.5,289C 140.553,277.771 140.886,266.604 145.5,255.5C 140.053,249.44 139.053,242.606 142.5,235C 139.621,232.085 137.621,228.585 136.5,224.5C 139.142,208.956 142.309,193.623 146,178.5C 135.51,190.083 122.843,198.416 108,203.5C 105.357,202.679 103.024,201.346 101,199.5C 89.7469,174.311 85.7469,147.978 89,120.5C 90.2733,114.808 91.2733,109.142 92,103.5C 86.9205,96.1273 79.9205,92.4606 71,92.5C 53.1939,95.6931 45.5272,88.3598 48,70.5C 52.9094,62.3047 60.0761,59.4714 69.5,62C 81.1231,64.3946 91.2898,69.5612 100,77.5C 95.8356,68.9571 90.3356,61.1238 83.5,54C 75.5923,48.1284 67.4256,42.6284 59,37.5C 53.4178,28.3959 54.9178,20.7292 63.5,14.5 Z M 244.5,260.5 C 246.722,260.178 248.556,260.845 250,262.5C 252.403,266.06 254.57,269.727 256.5,273.5C 255.435,280.059 254.101,286.559 252.5,293C 249.567,296.2 246.067,297.367 242,296.5C 239.266,292.609 236.766,288.609 234.5,284.5C 235.642,277.959 236.975,271.459 238.5,265C 240.358,263.245 242.358,261.745 244.5,260.5 Z M 251.5,361.5 C 252.435,358.887 252.602,356.221 252,353.5C 249.597,349.94 247.43,346.273 245.5,342.5C 246.45,335.748 247.784,329.081 249.5,322.5C 252.299,320.786 255.299,319.453 258.5,318.5C 262.07,322.579 265.07,327.079 267.5,332C 266.542,339.666 264.875,347.166 262.5,354.5C 258.946,357.104 255.279,359.438 251.5,361.5 Z M 287.5,275.5 C 291.531,279.195 294.865,283.529 297.5,288.5C 296.293,295.867 294.96,303.2 293.5,310.5C 290.314,310.895 287.314,311.895 284.5,313.5C 281.678,309.872 278.845,306.205 276,302.5C 276.617,294.46 277.784,286.46 279.5,278.5C 282.542,278.267 285.208,277.267 287.5,275.5 Z"/></g>
<g><path style="opacity:1" fill="#58591d" d="M 81.5,21.5 C 74.5803,18.2175 68.247,18.8841 62.5,23.5C 62.8588,21.629 63.8588,20.129 65.5,19C 69.8333,18.3333 74.1667,18.3333 78.5,19C 79.9423,19.3768 80.9423,20.2101 81.5,21.5 Z"/></g>
<g><path style="opacity:1" fill="#53541c" d="M 88.5,27.5 C 90.0269,27.427 91.0269,28.0937 91.5,29.5C 89.9731,29.573 88.9731,28.9063 88.5,27.5 Z"/></g>
<g><path style="opacity:1" fill="#58581d" d="M 92.5,31.5 C 95.8333,32.8333 98.1667,35.1667 99.5,38.5C 96.8333,36.5 94.5,34.1667 92.5,31.5 Z"/></g>
<g><path style="opacity:1" fill="#616121" d="M 275.5,35.5 C 271.425,37.1184 267.092,38.1184 262.5,38.5C 266.515,36.6268 270.849,35.6268 275.5,35.5 Z"/></g>
<g><path style="opacity:1" fill="#9c9792" d="M 110.5,58.5 C 114.172,64.3531 117.672,70.3531 121,76.5C 123.659,74.7535 126.492,73.4202 129.5,72.5C 130.791,72.7373 131.791,72.404 132.5,71.5C 143.838,69.4386 152.672,73.1053 159,82.5C 161.908,87.5506 164.242,92.884 166,98.5C 169.403,137.357 155.236,167.857 123.5,190C 118.56,193.038 113.226,195.205 107.5,196.5C 98.8035,173.649 95.3035,149.982 97,125.5C 98.1777,118.081 99.6777,110.748 101.5,103.5C 91.08,88.2965 76.7466,82.4631 58.5,86C 56.0259,83.9589 55.0259,81.2923 55.5,78C 55.0655,72.2651 57.7322,69.0984 63.5,68.5C 71.4792,69.578 79.1459,71.7447 86.5,75C 93.6109,80.2744 100.278,86.1077 106.5,92.5C 108.491,89.5059 110.491,86.5059 112.5,83.5C 103.288,61.1233 87.7881,44.79 66,34.5C 62.3715,23.0102 66.5382,18.8435 78.5,22C 91.8443,31.881 102.511,44.0476 110.5,58.5 Z"/></g>
<g><path style="opacity:1" fill="#424316" d="M 64.5,36.5 C 68.3934,38.2763 72.0601,40.2763 75.5,42.5C 70.9911,41.7512 67.3245,39.7512 64.5,36.5 Z"/></g>
<g><path style="opacity:1" fill="#2a2515" d="M 72.5,26.5 C 74.7152,28.7295 76.7152,31.2295 78.5,34C 83.7061,38.7108 89.0395,43.2108 94.5,47.5C 96.5815,50.8055 99.0815,53.8055 102,56.5C 105.898,64.7325 110.231,72.7325 115,80.5C 117.235,81.9802 119.068,81.6469 120.5,79.5C 121.5,78.8333 122.5,78.1667 123.5,77.5C 123.141,79.371 122.141,80.871 120.5,82C 118.155,82.2365 116.155,83.0698 114.5,84.5C 106.579,63.9187 93.2455,47.9187 74.5,36.5C 73.0858,34.9458 71.4192,33.6125 69.5,32.5C 70.325,31.6143 71.325,31.281 72.5,31.5C 72.5,29.8333 72.5,28.1667 72.5,26.5 Z"/></g>
<g><path style="opacity:1" fill="#bebf4b" d="M 275.5,35.5 C 288.637,33.8199 298.803,38.4866 306,49.5C 307.341,52.022 308.174,54.6887 308.5,57.5C 309.098,62.813 309.431,68.1463 309.5,73.5C 306.249,91.6684 298.916,108.002 287.5,122.5C 285.413,123.585 284.08,125.251 283.5,127.5C 278.616,131.602 273.95,135.936 269.5,140.5C 267.147,141.34 265.147,142.674 263.5,144.5C 257.46,147.851 251.46,151.184 245.5,154.5C 242.053,155.083 239.053,156.416 236.5,158.5C 231.352,160.105 226.352,162.105 221.5,164.5C 216.484,166.341 211.818,168.674 207.5,171.5C 205.517,172.471 203.517,173.471 201.5,174.5C 201.5,173.833 201.5,173.167 201.5,172.5C 207.449,168.52 213.783,165.02 220.5,162C 239.269,155.616 256.603,146.616 272.5,135C 289.154,119.866 300.321,101.366 306,79.5C 306.667,72.1667 306.667,64.8333 306,57.5C 302.675,44.5025 294.341,37.8358 281,37.5C 268.602,38.5214 257.102,42.3548 246.5,49C 210.669,71.1672 184.503,101.667 168,140.5C 156.098,168.372 148.598,197.372 145.5,227.5C 144.053,226.866 143.387,225.699 143.5,224C 144.216,221.208 144.549,218.374 144.5,215.5C 144.5,215.167 144.5,214.833 144.5,214.5C 146.075,210.41 147.075,206.077 147.5,201.5C 147.575,198.794 147.908,196.127 148.5,193.5C 150.163,191.562 150.829,189.228 150.5,186.5C 150.5,186.167 150.5,185.833 150.5,185.5C 153.141,180.231 154.808,174.564 155.5,168.5C 159.632,155.225 164.632,142.225 170.5,129.5C 172.867,126.096 174.867,122.429 176.5,118.5C 176.733,116.938 177.4,115.605 178.5,114.5C 180.408,113.514 181.408,111.848 181.5,109.5C 183.268,107.078 184.768,104.412 186,101.5C 190.395,95.3185 195.229,89.6518 200.5,84.5C 202.5,83.1667 204.167,81.5 205.5,79.5C 208.833,76.8333 211.833,73.8333 214.5,70.5C 217.721,66.224 221.721,62.8907 226.5,60.5C 229.447,59.2195 231.781,57.2195 233.5,54.5C 242.504,47.8341 252.171,42.5008 262.5,38.5C 267.092,38.1184 271.425,37.1184 275.5,35.5 Z"/></g>
<g><path style="opacity:1" fill="#6b6c25" d="M 233.5,54.5 C 231.781,57.2195 229.447,59.2195 226.5,60.5C 228.193,57.8103 230.527,55.8103 233.5,54.5 Z"/></g>
<g><path style="opacity:1" fill="#a8a942" d="M 109.5,52.5 C 113.955,57.3761 117.455,63.0427 120,69.5C 120.759,71.0629 121.926,72.0629 123.5,72.5C 125.653,71.4271 127.653,71.4271 129.5,72.5C 126.492,73.4202 123.659,74.7535 121,76.5C 117.672,70.3531 114.172,64.3531 110.5,58.5C 111.097,58.2648 111.43,57.7648 111.5,57C 110.586,55.5936 109.92,54.0936 109.5,52.5 Z"/></g>
<g><path style="opacity:1" fill="#1e1715" d="M 119.5,79.5 C 118.167,79.5 116.833,79.5 115.5,79.5C 111.296,68.0879 105.296,57.7546 97.5,48.5C 94.9626,43.7827 91.796,39.4494 88,35.5C 85.0438,33.2779 82.2105,30.9446 79.5,28.5C 77.9829,26.8158 76.1496,25.4825 74,24.5C 72.9701,24.8361 72.4701,25.5028 72.5,26.5C 72.5,28.1667 72.5,29.8333 72.5,31.5C 71.325,31.281 70.325,31.6143 69.5,32.5C 71.4192,33.6125 73.0858,34.9458 74.5,36.5C 65.9798,34.6402 63.9798,30.1402 68.5,23C 70.5,22.3333 72.5,22.3333 74.5,23C 85.5752,29.4073 94.7419,37.9073 102,48.5C 108.523,58.5031 114.356,68.8365 119.5,79.5 Z"/></g>
<g><path style="opacity:1" fill="#313110" d="M 308.5,57.5 C 310.524,62.7552 310.857,68.0885 309.5,73.5C 309.431,68.1463 309.098,62.813 308.5,57.5 Z"/></g>
<g><path style="opacity:1" fill="#7c7d2f" d="M 150.5,71.5 C 143.883,69.1861 137.216,69.0194 130.5,71C 131.094,71.4643 131.761,71.631 132.5,71.5C 131.791,72.404 130.791,72.7373 129.5,72.5C 127.653,71.4271 125.653,71.4271 123.5,72.5C 124.347,71.0337 125.68,70.2004 127.5,70C 133.442,68.5941 139.442,68.2608 145.5,69C 147.491,69.3736 149.158,70.207 150.5,71.5 Z"/></g>
<g><path style="opacity:1" fill="#717227" d="M 55.5,69.5 C 53.8169,73.6306 53.1502,77.9639 53.5,82.5C 52.3567,79.0242 52.1901,75.3575 53,71.5C 53.4169,70.244 54.2502,69.5774 55.5,69.5 Z"/></g>
<g><path style="opacity:1" fill="#6d5e24" d="M 94.5,47.5 C 95.4584,47.9528 96.2917,48.6195 97,49.5C 97.3988,49.2716 97.5654,48.9382 97.5,48.5C 105.296,57.7546 111.296,68.0879 115.5,79.5C 116.833,79.5 118.167,79.5 119.5,79.5C 119.833,79.5 120.167,79.5 120.5,79.5C 119.068,81.6469 117.235,81.9802 115,80.5C 110.231,72.7325 105.898,64.7325 102,56.5C 99.0815,53.8055 96.5815,50.8055 94.5,47.5 Z"/></g>
<g><path style="opacity:1" fill="#6d6e25" d="M 214.5,70.5 C 211.833,73.8333 208.833,76.8333 205.5,79.5C 207.5,75.5 210.5,72.5 214.5,70.5 Z"/></g>
<g><path style="opacity:1" fill="#52531b" d="M 205.5,79.5 C 204.167,81.5 202.5,83.1667 200.5,84.5C 201.167,81.8333 202.833,80.1667 205.5,79.5 Z"/></g>
<g><path style="opacity:1" fill="#6a6a24" d="M 181.5,109.5 C 181.408,111.848 180.408,113.514 178.5,114.5C 178.75,112.326 179.75,110.659 181.5,109.5 Z"/></g>
<g><path style="opacity:1" fill="#81822d" d="M 168.5,102.5 C 169.649,111.011 169.649,119.677 168.5,128.5C 168.167,128.5 167.833,128.5 167.5,128.5C 168.253,119.854 168.587,111.188 168.5,102.5 Z"/></g>
<g><path style="opacity:1" fill="#53541c" d="M 96.5,113.5 C 96.2833,117.705 95.6167,121.705 94.5,125.5C 94.1977,121.21 94.8643,117.21 96.5,113.5 Z"/></g>
<g><path style="opacity:1" fill="#58591e" d="M 176.5,118.5 C 174.867,122.429 172.867,126.096 170.5,129.5C 171.385,125.134 173.385,121.468 176.5,118.5 Z"/></g>
<g><path style="opacity:1" fill="#434316" d="M 287.5,122.5 C 286.92,124.749 285.587,126.415 283.5,127.5C 284.08,125.251 285.413,123.585 287.5,122.5 Z"/></g>
<g><path style="opacity:1" fill="#3f4016" d="M 269.5,140.5 C 268.267,142.796 266.267,144.13 263.5,144.5C 265.147,142.674 267.147,141.34 269.5,140.5 Z"/></g>
<g><path style="opacity:1" fill="#59591e" d="M 167.5,128.5 C 167.833,128.5 168.167,128.5 168.5,128.5C 168.409,130.698 169.075,131.031 170.5,129.5C 164.632,142.225 159.632,155.225 155.5,168.5C 156.008,165.824 156.175,163.157 156,160.5C 155.617,161.056 155.117,161.389 154.5,161.5C 160.267,150.981 164.6,139.981 167.5,128.5 Z"/></g>
<g><path style="opacity:1" fill="#454618" d="M 245.5,154.5 C 242.947,156.584 239.947,157.917 236.5,158.5C 239.053,156.416 242.053,155.083 245.5,154.5 Z"/></g>
<g><path style="opacity:1" fill="#3f4016" d="M 94.5,152.5 C 95.4489,156.657 96.1156,160.99 96.5,165.5C 95.7321,164.737 95.2321,163.737 95,162.5C 94.5017,159.183 94.335,155.85 94.5,152.5 Z"/></g>
<g><path style="opacity:1" fill="#363714" d="M 268.5,161.5 C 272.764,161.477 276.431,162.81 279.5,165.5C 275.605,164.538 271.939,163.204 268.5,161.5 Z"/></g>
<g><path style="opacity:1" fill="#797a2a" d="M 264.5,161.5 C 258.158,161.334 251.825,161.5 245.5,162C 238.496,163.641 231.496,165.141 224.5,166.5C 237.358,160.912 250.691,159.245 264.5,161.5 Z"/></g>
<g><path style="opacity:1" fill="#434416" d="M 221.5,164.5 C 220.34,166.203 221.007,166.869 223.5,166.5C 218.33,168.671 212.997,170.671 207.5,172.5C 207.5,172.167 207.5,171.833 207.5,171.5C 211.818,168.674 216.484,166.341 221.5,164.5 Z"/></g>
<g><path style="opacity:1" fill="#c0c14d" d="M 81.5,21.5 C 83.8333,23.5 86.1667,25.5 88.5,27.5C 88.9731,28.9063 89.9731,29.573 91.5,29.5C 91.8333,30.1667 92.1667,30.8333 92.5,31.5C 94.5,34.1667 96.8333,36.5 99.5,38.5C 102.89,43.2082 106.224,47.8749 109.5,52.5C 109.92,54.0936 110.586,55.5936 111.5,57C 111.43,57.7648 111.097,58.2648 110.5,58.5C 102.511,44.0476 91.8443,31.881 78.5,22C 66.5382,18.8435 62.3715,23.0102 66,34.5C 87.7881,44.79 103.288,61.1233 112.5,83.5C 110.491,86.5059 108.491,89.5059 106.5,92.5C 100.278,86.1077 93.6109,80.2744 86.5,75C 79.1459,71.7447 71.4792,69.578 63.5,68.5C 57.7322,69.0984 55.0655,72.2651 55.5,78C 55.0259,81.2923 56.0259,83.9589 58.5,86C 76.7466,82.4631 91.08,88.2965 101.5,103.5C 99.6777,110.748 98.1777,118.081 97,125.5C 95.3035,149.982 98.8035,173.649 107.5,196.5C 113.226,195.205 118.56,193.038 123.5,190C 155.236,167.857 169.403,137.357 166,98.5C 164.242,92.884 161.908,87.5506 159,82.5C 152.672,73.1053 143.838,69.4386 132.5,71.5C 131.761,71.631 131.094,71.4643 130.5,71C 137.216,69.0194 143.883,69.1861 150.5,71.5C 161.397,78.9581 167.397,89.2915 168.5,102.5C 168.587,111.188 168.253,119.854 167.5,128.5C 164.6,139.981 160.267,150.981 154.5,161.5C 152.255,164.32 150.255,167.32 148.5,170.5C 146.086,171.911 144.419,173.911 143.5,176.5C 136.382,183.294 128.716,189.294 120.5,194.5C 118.033,194.755 116.033,195.755 114.5,197.5C 112.379,197.325 110.379,197.659 108.5,198.5C 107.5,198.5 106.5,198.5 105.5,198.5C 105.396,196.297 104.73,194.297 103.5,192.5C 102.644,187.146 100.977,182.146 98.5,177.5C 98.2601,173.394 97.5934,169.394 96.5,165.5C 96.1156,160.99 95.4489,156.657 94.5,152.5C 94.5,143.5 94.5,134.5 94.5,125.5C 95.6167,121.705 96.2833,117.705 96.5,113.5C 96.4642,110.179 97.1308,107.012 98.5,104C 93.8922,96.8571 87.5589,91.8571 79.5,89C 71.8117,88.8315 64.1451,88.3315 56.5,87.5C 55.0476,86.0603 54.0476,84.3936 53.5,82.5C 53.1502,77.9639 53.8169,73.6306 55.5,69.5C 60.0435,66.6093 65.0435,65.776 70.5,67C 74.4963,68.7501 78.6629,69.9168 83,70.5C 86.7407,73.0927 90.5741,75.426 94.5,77.5C 96.8333,80.5 99.5,83.1667 102.5,85.5C 102.833,86.5 103.5,87.1667 104.5,87.5C 106.153,88.7994 107.653,88.4661 109,86.5C 109.667,84.5 109.667,82.5 109,80.5C 108.617,79.944 108.117,79.6107 107.5,79.5C 101.891,67.4272 94.224,56.9272 84.5,48C 81.1019,46.6429 78.1019,44.8096 75.5,42.5C 72.0601,40.2763 68.3934,38.2763 64.5,36.5C 64.3146,34.8042 63.4813,33.4709 62,32.5C 61.2642,29.408 61.4309,26.408 62.5,23.5C 68.247,18.8841 74.5803,18.2175 81.5,21.5 Z"/></g>
<g><path style="opacity:1" fill="#dab76a" d="M 130.5,136.5 C 130.5,138.167 130.5,139.833 130.5,141.5C 129.171,147.067 131.004,151.067 136,153.5C 136.333,152.833 136.667,152.167 137,151.5C 140.375,154.102 144.208,155.435 148.5,155.5C 142.584,166.315 134.584,175.315 124.5,182.5C 120.825,177.672 120.658,172.672 124,167.5C 124.411,162.481 124.911,157.481 125.5,152.5C 127.575,147.277 129.241,141.943 130.5,136.5 Z"/></g>
<g><path style="opacity:1" fill="#644b14" d="M 124.5,148.5 C 122.687,155.931 120.687,163.265 118.5,170.5C 118.5,169.167 118.5,167.833 118.5,166.5C 119.302,159.899 121.302,153.899 124.5,148.5 Z"/></g>
<g><path style="opacity:1" fill="#ecd27c" d="M 155.5,140.5 C 153.421,145.656 151.088,150.656 148.5,155.5C 144.208,155.435 140.375,154.102 137,151.5C 136.667,152.167 136.333,152.833 136,153.5C 131.004,151.067 129.171,147.067 130.5,141.5C 131.222,141.918 131.722,142.584 132,143.5C 132.333,142.5 132.667,141.5 133,140.5C 135.257,142.046 137.424,143.712 139.5,145.5C 139.833,145.167 140.167,144.833 140.5,144.5C 139.167,143.38 138.667,142.047 139,140.5C 142.594,143.698 146.761,144.865 151.5,144C 150.5,143 149.5,142 148.5,141C 150.828,141.804 153.161,141.637 155.5,140.5 Z"/></g>
<g><path style="opacity:1" fill="#6b5818" d="M 129.5,125.5 C 129.135,131.931 128.135,138.264 126.5,144.5C 126.167,144.5 125.833,144.5 125.5,144.5C 125.633,137.806 126.966,131.473 129.5,125.5 Z"/></g>
<g><path style="opacity:1" fill="#f7e181" d="M 157.5,133.5 C 156.833,135.833 156.167,138.167 155.5,140.5C 153.161,141.637 150.828,141.804 148.5,141C 149.5,142 150.5,143 151.5,144C 146.761,144.865 142.594,143.698 139,140.5C 138.667,142.047 139.167,143.38 140.5,144.5C 140.167,144.833 139.833,145.167 139.5,145.5C 137.424,143.712 135.257,142.046 133,140.5C 132.667,141.5 132.333,142.5 132,143.5C 131.722,142.584 131.222,141.918 130.5,141.5C 130.5,139.833 130.5,138.167 130.5,136.5C 132.054,128.613 134.054,120.946 136.5,113.5C 137.648,112.105 138.648,112.272 139.5,114C 137.789,115.133 137.289,116.633 138,118.5C 141.563,123.751 146.396,126.918 152.5,128C 153.634,129.016 153.301,129.683 151.5,130C 154.019,130.586 156.019,131.753 157.5,133.5 Z"/></g>
<g><path style="opacity:1" fill="#5a5351" d="M 156.5,83.5 C 160.607,87.9457 163.107,93.279 164,99.5C 166.6,134.384 154.433,162.884 127.5,185C 122.489,188.528 117.155,191.362 111.5,193.5C 112.11,192.609 112.443,191.609 112.5,190.5C 112.5,190.167 112.5,189.833 112.5,189.5C 116.836,187.668 120.836,185.335 124.5,182.5C 134.584,175.315 142.584,166.315 148.5,155.5C 151.088,150.656 153.421,145.656 155.5,140.5C 156.167,138.167 156.833,135.833 157.5,133.5C 159.281,129.8 160.281,125.8 160.5,121.5C 161.653,115.347 161.82,109.014 161,102.5C 160.365,97.7573 158.865,93.4239 156.5,89.5C 156.5,88.5 156.5,87.5 156.5,86.5C 156.5,85.5 156.5,84.5 156.5,83.5 Z"/></g>
<g><path style="opacity:1" fill="#ecd37b" d="M 160.5,121.5 C 160.281,125.8 159.281,129.8 157.5,133.5C 156.019,131.753 154.019,130.586 151.5,130C 153.301,129.683 153.634,129.016 152.5,128C 146.396,126.918 141.563,123.751 138,118.5C 137.289,116.633 137.789,115.133 139.5,114C 138.648,112.272 137.648,112.105 136.5,113.5C 136.502,109.835 137.835,106.835 140.5,104.5C 142.695,103.392 144.695,103.559 146.5,105C 145.5,105.333 144.5,105.667 143.5,106C 148.005,111.053 153.671,112.886 160.5,111.5C 160.5,114.833 160.5,118.167 160.5,121.5 Z"/></g>
<g><path style="opacity:1" fill="#d9bb67" d="M 156.5,89.5 C 158.865,93.4239 160.365,97.7573 161,102.5C 161.82,109.014 161.653,115.347 160.5,121.5C 160.5,118.167 160.5,114.833 160.5,111.5C 153.671,112.886 148.005,111.053 143.5,106C 144.5,105.667 145.5,105.333 146.5,105C 144.695,103.559 142.695,103.392 140.5,104.5C 144.73,101.847 148.063,98.8473 150.5,95.5C 154.201,95.1326 156.201,93.1326 156.5,89.5 Z"/></g>
<g><path style="opacity:1" fill="#dcba47" d="M 150.5,95.5 C 148.063,98.8473 144.73,101.847 140.5,104.5C 137.835,106.835 136.502,109.835 136.5,113.5C 134.054,120.946 132.054,128.613 130.5,136.5C 129.241,141.943 127.575,147.277 125.5,152.5C 125.833,149.833 126.167,147.167 126.5,144.5C 128.135,138.264 129.135,131.931 129.5,125.5C 130.793,124.158 131.626,122.491 132,120.5C 132.959,111.983 135.125,103.983 138.5,96.5C 140.392,95.2983 142.226,93.965 144,92.5C 146.259,93.3804 148.425,94.3804 150.5,95.5 Z"/></g>
<g><path style="opacity:1" fill="#5a4c15" d="M 140.5,89.5 C 140.5,90.8333 140.5,92.1667 140.5,93.5C 139.094,93.9731 138.427,94.9731 138.5,96.5C 135.125,103.983 132.959,111.983 132,120.5C 131.626,122.491 130.793,124.158 129.5,125.5C 129.811,116.633 131.311,107.966 134,99.5C 135.444,95.5891 137.611,92.2558 140.5,89.5 Z"/></g>
<g><path style="opacity:1" fill="#caa442" d="M 151.5,81.5 C 153.395,82.973 155.061,84.6397 156.5,86.5C 156.5,87.5 156.5,88.5 156.5,89.5C 156.201,93.1326 154.201,95.1326 150.5,95.5C 148.425,94.3804 146.259,93.3804 144,92.5C 142.226,93.965 140.392,95.2983 138.5,96.5C 138.427,94.9731 139.094,93.9731 140.5,93.5C 143.7,89.1208 147.367,85.1208 151.5,81.5 Z"/></g>
<g><path style="opacity:1" fill="#727327" d="M 107.5,79.5 C 108.117,79.6107 108.617,79.944 109,80.5C 109.667,82.5 109.667,84.5 109,86.5C 107.653,88.4661 106.153,88.7994 104.5,87.5C 108.522,86.1232 109.522,83.4565 107.5,79.5 Z"/></g>
<g><path style="opacity:1" fill="#9b7b26" d="M 149.5,78.5 C 150.167,79.5 150.833,80.5 151.5,81.5C 147.367,85.1208 143.7,89.1208 140.5,93.5C 140.5,92.1667 140.5,90.8333 140.5,89.5C 142.904,86.3689 145.071,83.0356 147,79.5C 147.671,78.7476 148.504,78.4142 149.5,78.5 Z"/></g>
<g><path style="opacity:1" fill="#40371c" d="M 79.5,83.5 C 82.5184,83.3354 85.5184,83.502 88.5,84C 93.3333,87.5 97.5,91.6667 101,96.5C 101.399,96.2716 101.565,95.9382 101.5,95.5C 102.708,96.2341 104.041,96.5674 105.5,96.5C 106.778,96.2178 107.778,95.5511 108.5,94.5C 108.657,95.8734 108.49,97.2068 108,98.5C 106.052,99.1094 104.218,99.776 102.5,100.5C 96.2431,92.9075 88.5764,87.2408 79.5,83.5 Z"/></g>
<g><path style="opacity:1" fill="#5f511e" d="M 101.5,95.5 C 101.565,95.9382 101.399,96.2716 101,96.5C 97.5,91.6667 93.3333,87.5 88.5,84C 85.5184,83.502 82.5184,83.3354 79.5,83.5C 79.1667,83.5 78.8333,83.5 78.5,83.5C 77.1667,82.8333 75.8333,82.1667 74.5,81.5C 74.9382,81.5654 75.2716,81.3988 75.5,81C 71.079,78.0575 66.7456,77.8908 62.5,80.5C 63.325,81.3857 64.325,81.719 65.5,81.5C 63.7354,82.4614 61.7354,82.7947 59.5,82.5C 59.3832,80.5165 60.0499,78.8498 61.5,77.5C 65.6883,75.5156 70.0216,74.3489 74.5,74C 85.7999,78.312 94.7999,85.4787 101.5,95.5 Z"/></g>
<g><path style="opacity:1" fill="#4d3d13" d="M 149.5,78.5 C 148.504,78.4142 147.671,78.7476 147,79.5C 145.071,83.0356 142.904,86.3689 140.5,89.5C 141.528,86.0691 142.861,82.7358 144.5,79.5C 144.32,78.4461 143.987,77.4461 143.5,76.5C 145.933,75.5514 147.933,76.2181 149.5,78.5 Z"/></g>
<g><path style="opacity:1" fill="#373813" d="M 94.5,77.5 C 98.1667,79.1667 100.833,81.8333 102.5,85.5C 99.5,83.1667 96.8333,80.5 94.5,77.5 Z"/></g>
<g><path style="opacity:1" fill="#1b160f" d="M 105.5,96.5 C 104.041,96.5674 102.708,96.2341 101.5,95.5C 94.7999,85.4787 85.7999,78.312 74.5,74C 70.0216,74.3489 65.6883,75.5156 61.5,77.5C 60.0499,78.8498 59.3832,80.5165 59.5,82.5C 61.7354,82.7947 63.7354,82.4614 65.5,81.5C 68.5,81.5 71.5,81.5 74.5,81.5C 75.8333,82.1667 77.1667,82.8333 78.5,83.5C 72.1211,83.5158 65.7878,83.6825 59.5,84C 55.5,79.6667 55.5,75.3333 59.5,71C 79.2659,71.3853 94.5992,79.8853 105.5,96.5 Z"/></g>
<g><path style="opacity:1" fill="#a68b31" d="M 74.5,81.5 C 71.5,81.5 68.5,81.5 65.5,81.5C 64.325,81.719 63.325,81.3857 62.5,80.5C 66.7456,77.8908 71.079,78.0575 75.5,81C 75.2716,81.3988 74.9382,81.5654 74.5,81.5 Z"/></g>
<g><path style="opacity:1" fill="#050402" d="M 156.5,83.5 C 156.5,84.5 156.5,85.5 156.5,86.5C 155.061,84.6397 153.395,82.973 151.5,81.5C 150.833,80.5 150.167,79.5 149.5,78.5C 147.933,76.2181 145.933,75.5514 143.5,76.5C 143.987,77.4461 144.32,78.4461 144.5,79.5C 142.861,82.7358 141.528,86.0691 140.5,89.5C 137.611,92.2558 135.444,95.5891 134,99.5C 131.311,107.966 129.811,116.633 129.5,125.5C 126.966,131.473 125.633,137.806 125.5,144.5C 124.566,145.568 124.232,146.901 124.5,148.5C 121.302,153.899 119.302,159.899 118.5,166.5C 113.883,173.669 110.216,181.335 107.5,189.5C 97.3496,161.22 96.0162,132.554 103.5,103.5C 103.315,102.416 102.982,101.416 102.5,100.5C 104.218,99.776 106.052,99.1094 108,98.5C 108.49,97.2068 108.657,95.8734 108.5,94.5C 109.986,90.863 111.986,87.5296 114.5,84.5C 116.155,83.0698 118.155,82.2365 120.5,82C 122.141,80.871 123.141,79.371 123.5,77.5C 133.35,72.0242 143.017,72.1909 152.5,78C 154.439,79.4321 155.772,81.2654 156.5,83.5 Z"/></g>
<g><path style="opacity:1" fill="#98802f" d="M 79.5,28.5 C 82.2105,30.9446 85.0438,33.2779 88,35.5C 91.796,39.4494 94.9626,43.7827 97.5,48.5C 97.5654,48.9382 97.3988,49.2716 97,49.5C 96.2917,48.6195 95.4584,47.9528 94.5,47.5C 89.2495,42.0749 84.0829,36.4083 79,30.5C 78.3083,29.5632 78.475,28.8966 79.5,28.5 Z"/></g>
<g><path style="opacity:1" fill="#584b1b" d="M 79.5,28.5 C 78.475,28.8966 78.3083,29.5632 79,30.5C 84.0829,36.4083 89.2495,42.0749 94.5,47.5C 89.0395,43.2108 83.7061,38.7108 78.5,34C 76.7152,31.2295 74.7152,28.7295 72.5,26.5C 72.4701,25.5028 72.9701,24.8361 74,24.5C 76.1496,25.4825 77.9829,26.8158 79.5,28.5 Z"/></g>
<g><path style="opacity:1" fill="#684d18" d="M 118.5,170.5 C 116.948,176.825 114.615,182.825 111.5,188.5C 111.624,189.107 111.957,189.44 112.5,189.5C 112.5,189.833 112.5,190.167 112.5,190.5C 111.325,190.719 110.325,190.386 109.5,189.5C 112.695,183.244 115.695,176.911 118.5,170.5 Z"/></g>
<g><path style="opacity:1" fill="#c69c46" d="M 125.5,144.5 C 125.833,144.5 126.167,144.5 126.5,144.5C 126.167,147.167 125.833,149.833 125.5,152.5C 124.911,157.481 124.411,162.481 124,167.5C 120.658,172.672 120.825,177.672 124.5,182.5C 120.836,185.335 116.836,187.668 112.5,189.5C 111.957,189.44 111.624,189.107 111.5,188.5C 114.615,182.825 116.948,176.825 118.5,170.5C 120.687,163.265 122.687,155.931 124.5,148.5C 124.232,146.901 124.566,145.568 125.5,144.5 Z"/></g>
<g><path style="opacity:1" fill="#464717" d="M 148.5,170.5 C 147.581,173.089 145.914,175.089 143.5,176.5C 144.419,173.911 146.086,171.911 148.5,170.5 Z"/></g>
<g><path style="opacity:1" fill="#86872e" d="M 207.5,171.5 C 207.5,171.833 207.5,172.167 207.5,172.5C 202.684,176.293 197.35,179.293 191.5,181.5C 194.278,178.391 197.611,176.058 201.5,174.5C 203.517,173.471 205.517,172.471 207.5,171.5 Z"/></g>
<g><path style="opacity:1" fill="#5d5e1f" d="M 293.5,176.5 C 295.9,178.296 297.567,180.63 298.5,183.5C 296.1,181.704 294.433,179.37 293.5,176.5 Z"/></g>
<g><path style="opacity:1" fill="#56571e" d="M 155.5,168.5 C 154.808,174.564 153.141,180.231 150.5,185.5C 151.591,179.571 153.257,173.904 155.5,168.5 Z"/></g>
<g><path style="opacity:1" fill="#231b0d" d="M 118.5,166.5 C 118.5,167.833 118.5,169.167 118.5,170.5C 115.695,176.911 112.695,183.244 109.5,189.5C 110.325,190.386 111.325,190.719 112.5,190.5C 112.443,191.609 112.11,192.609 111.5,193.5C 110.791,194.404 109.791,194.737 108.5,194.5C 108.371,192.784 108.038,191.117 107.5,189.5C 110.216,181.335 113.883,173.669 118.5,166.5 Z"/></g>
<g><path style="opacity:1" fill="#51511c" d="M 98.5,177.5 C 100.977,182.146 102.644,187.146 103.5,192.5C 100.86,187.915 99.1938,182.915 98.5,177.5 Z"/></g>
<g><path style="opacity:1" fill="#636421" d="M 299.5,186.5 C 301.04,188.838 301.706,191.505 301.5,194.5C 300.232,192.095 299.565,189.428 299.5,186.5 Z"/></g>
<g><path style="opacity:1" fill="#ccce50" d="M 201.5,172.5 C 201.5,173.167 201.5,173.833 201.5,174.5C 197.611,176.058 194.278,178.391 191.5,181.5C 188.884,182.48 186.551,183.98 184.5,186C 185.737,186.232 186.737,186.732 187.5,187.5C 172.513,198.313 161.013,211.98 153,228.5C 150.554,234.951 149.054,241.618 148.5,248.5C 147.833,248.5 147.167,248.5 146.5,248.5C 146.5,246.5 146.5,244.5 146.5,242.5C 147.945,239.063 148.945,235.397 149.5,231.5C 150.404,230.791 150.737,229.791 150.5,228.5C 148.585,228.784 146.919,228.451 145.5,227.5C 146.822,227.67 147.989,227.337 149,226.5C 161.614,203.72 179.114,185.72 201.5,172.5 Z"/></g>
<g><path style="opacity:1" fill="#666723" d="M 150.5,186.5 C 150.829,189.228 150.163,191.562 148.5,193.5C 148.41,190.848 149.076,188.515 150.5,186.5 Z"/></g>
<g><path style="opacity:1" fill="#484918" d="M 120.5,194.5 C 118.967,196.245 116.967,197.245 114.5,197.5C 116.033,195.755 118.033,194.755 120.5,194.5 Z"/></g>
<g><path style="opacity:1" fill="#484817" d="M 114.5,197.5 C 112.598,199.151 110.598,199.484 108.5,198.5C 110.379,197.659 112.379,197.325 114.5,197.5 Z"/></g>
<g><path style="opacity:1" fill="#a09c95" d="M 201.5,172.5 C 179.114,185.72 161.614,203.72 149,226.5C 147.989,227.337 146.822,227.67 145.5,227.5C 148.598,197.372 156.098,168.372 168,140.5C 184.503,101.667 210.669,71.1672 246.5,49C 257.102,42.3548 268.602,38.5214 281,37.5C 294.341,37.8358 302.675,44.5025 306,57.5C 306.667,64.8333 306.667,72.1667 306,79.5C 300.321,101.366 289.154,119.866 272.5,135C 256.603,146.616 239.269,155.616 220.5,162C 213.783,165.02 207.449,168.52 201.5,172.5 Z"/></g>
<g><path style="opacity:1" fill="#6d531b" d="M 160.5,191.5 C 160.5,192.833 160.5,194.167 160.5,195.5C 158.358,197.765 156.691,200.432 155.5,203.5C 155.624,204.107 155.957,204.44 156.5,204.5C 156.5,204.833 156.5,205.167 156.5,205.5C 155.206,206.29 154.039,207.29 153,208.5C 152.833,208 152.667,207.5 152.5,207C 154.032,204.379 155.032,201.546 155.5,198.5C 156.921,195.991 158.588,193.657 160.5,191.5 Z"/></g>
<g><path style="opacity:1" fill="#aa832b" d="M 169.5,177.5 C 169.5,178.833 169.5,180.167 169.5,181.5C 166.001,185.827 163.001,190.494 160.5,195.5C 160.5,194.167 160.5,192.833 160.5,191.5C 163.001,186.494 166.001,181.827 169.5,177.5 Z"/></g>
<g><path style="opacity:1" fill="#4f4745" d="M 201.5,166.5 C 202.209,167.404 203.209,167.737 204.5,167.5C 183.681,179.65 166.347,195.65 152.5,215.5C 153.292,211.922 154.625,208.588 156.5,205.5C 156.5,205.167 156.5,204.833 156.5,204.5C 166.982,191.013 179.315,179.68 193.5,170.5C 196.193,169.153 198.86,167.82 201.5,166.5 Z"/></g>
<g><path style="opacity:1" fill="#d3b15d" d="M 193.5,170.5 C 179.315,179.68 166.982,191.013 156.5,204.5C 155.957,204.44 155.624,204.107 155.5,203.5C 156.691,200.432 158.358,197.765 160.5,195.5C 163.001,190.494 166.001,185.827 169.5,181.5C 171.025,177.635 173.358,174.302 176.5,171.5C 178.479,170.188 180.145,168.521 181.5,166.5C 183.811,165.786 185.978,164.786 188,163.5C 187.68,166.46 187.68,169.46 188,172.5C 189.401,170.808 191.234,170.141 193.5,170.5 Z"/></g>
<g><path style="opacity:1" fill="#e3c35c" d="M 207.5,162.5 C 205.5,163.833 203.5,165.167 201.5,166.5C 198.86,167.82 196.193,169.153 193.5,170.5C 191.234,170.141 189.401,170.808 188,172.5C 187.68,169.46 187.68,166.46 188,163.5C 185.978,164.786 183.811,165.786 181.5,166.5C 180.145,168.521 178.479,170.188 176.5,171.5C 178.485,167.544 180.985,163.878 184,160.5C 186.205,157.96 188.705,155.793 191.5,154C 197.289,152.816 198.789,154.649 196,159.5C 197.364,158.742 198.531,159.242 199.5,161C 200.793,161.49 202.127,161.657 203.5,161.5C 203.383,159.516 204.05,157.85 205.5,156.5C 206.5,156.833 207.167,157.5 207.5,158.5C 206.295,159.995 206.295,161.328 207.5,162.5 Z"/></g>
<g><path style="opacity:1" fill="#816b1e" d="M 246.5,100.5 C 246.5,100.833 246.5,101.167 246.5,101.5C 235.793,110.51 225.127,119.51 214.5,128.5C 206.296,134.194 198.796,140.86 192,148.5C 184.814,157.57 177.647,166.57 170.5,175.5C 171.723,172.726 173.223,170.059 175,167.5C 180.714,160.625 186.214,153.625 191.5,146.5C 208.94,129.968 227.273,114.635 246.5,100.5 Z"/></g>
<g><path style="opacity:1" fill="#3b2f0f" d="M 191.5,146.5 C 186.214,153.625 180.714,160.625 175,167.5C 173.223,170.059 171.723,172.726 170.5,175.5C 169.662,175.842 169.328,176.508 169.5,177.5C 166.001,181.827 163.001,186.494 160.5,191.5C 160.46,188.575 161.293,185.909 163,183.5C 171.088,169.946 180.588,157.613 191.5,146.5 Z"/></g>
<g><path style="opacity:1" fill="#e5c550" d="M 214.5,128.5 C 212.189,131.147 209.856,133.814 207.5,136.5C 209.14,136.153 210.807,136.653 212.5,138C 211.095,143.212 209.095,148.212 206.5,153C 207.759,153.923 209.092,154.757 210.5,155.5C 207.882,158.692 208.882,160.025 213.5,159.5C 211.819,161.008 209.819,162.008 207.5,162.5C 206.295,161.328 206.295,159.995 207.5,158.5C 207.167,157.5 206.5,156.833 205.5,156.5C 204.05,157.85 203.383,159.516 203.5,161.5C 202.127,161.657 200.793,161.49 199.5,161C 198.531,159.242 197.364,158.742 196,159.5C 198.789,154.649 197.289,152.816 191.5,154C 188.705,155.793 186.205,157.96 184,160.5C 180.985,163.878 178.485,167.544 176.5,171.5C 173.358,174.302 171.025,177.635 169.5,181.5C 169.5,180.167 169.5,178.833 169.5,177.5C 169.328,176.508 169.662,175.842 170.5,175.5C 177.647,166.57 184.814,157.57 192,148.5C 198.796,140.86 206.296,134.194 214.5,128.5 Z"/></g>
<g><path style="opacity:1" fill="#3a312f" d="M 268.5,131.5 C 269.404,132.209 269.737,133.209 269.5,134.5C 266.044,136.783 262.71,139.283 259.5,142C 241.496,151.248 223.162,159.748 204.5,167.5C 203.209,167.737 202.209,167.404 201.5,166.5C 203.5,165.167 205.5,163.833 207.5,162.5C 209.819,162.008 211.819,161.008 213.5,159.5C 220.167,156.833 226.833,154.167 233.5,151.5C 241.647,148.261 249.314,144.261 256.5,139.5C 260.772,137.226 264.772,134.559 268.5,131.5 Z"/></g>
<g><path style="opacity:1" fill="#f4d855" d="M 262.5,87.5 C 261.167,89.1667 259.833,90.8333 258.5,92.5C 253.836,96.331 249.67,100.664 246,105.5C 246.19,109.909 247.024,114.242 248.5,118.5C 248.276,121.444 247.61,124.277 246.5,127C 247.578,130.541 248.412,134.041 249,137.5C 246.988,140.846 244.321,143.512 241,145.5C 240.055,145.095 239.388,144.428 239,143.5C 236.946,146.047 235.113,148.714 233.5,151.5C 226.833,154.167 220.167,156.833 213.5,159.5C 208.882,160.025 207.882,158.692 210.5,155.5C 209.092,154.757 207.759,153.923 206.5,153C 209.095,148.212 211.095,143.212 212.5,138C 210.807,136.653 209.14,136.153 207.5,136.5C 209.856,133.814 212.189,131.147 214.5,128.5C 225.127,119.51 235.793,110.51 246.5,101.5C 251.557,96.4382 256.89,91.7715 262.5,87.5 Z"/></g>
<g><path style="opacity:1" fill="#3f340e" d="M 293.5,45.5 C 289.08,52.0027 284.413,58.336 279.5,64.5C 268.528,76.4741 257.528,88.4741 246.5,100.5C 227.273,114.635 208.94,129.968 191.5,146.5C 191.369,145.761 191.536,145.094 192,144.5C 209.183,128.503 227.016,113.336 245.5,99C 258.118,86.5564 269.785,73.3897 280.5,59.5C 282.83,55.5376 285.664,51.871 289,48.5C 289.202,46.7444 289.702,45.0777 290.5,43.5C 291.739,43.9424 292.739,44.6091 293.5,45.5 Z"/></g>
<g><path style="opacity:1" fill="#dfc36e" d="M 267.5,82.5 C 267.461,83.5832 267.127,84.5832 266.5,85.5C 269.106,86.7703 271.439,88.4369 273.5,90.5C 274.435,93.1025 276.102,95.1025 278.5,96.5C 274.859,99.4716 275.026,101.805 279,103.5C 280.016,102.366 280.683,102.699 281,104.5C 283.139,103.231 285.305,103.231 287.5,104.5C 286.209,105.527 286.209,106.527 287.5,107.5C 282.13,116.228 275.797,124.228 268.5,131.5C 264.772,134.559 260.772,137.226 256.5,139.5C 256.351,138.448 256.517,137.448 257,136.5C 260.21,132.576 263.044,128.41 265.5,124C 265.5,121 265.5,118 265.5,115C 261.996,107.587 259.663,100.087 258.5,92.5C 259.833,90.8333 261.167,89.1667 262.5,87.5C 263.833,85.5 265.5,83.8333 267.5,82.5 Z"/></g>
<g><path style="opacity:1" fill="#eace64" d="M 258.5,92.5 C 259.663,100.087 261.996,107.587 265.5,115C 265.5,118 265.5,121 265.5,124C 263.044,128.41 260.21,132.576 257,136.5C 256.517,137.448 256.351,138.448 256.5,139.5C 249.314,144.261 241.647,148.261 233.5,151.5C 235.113,148.714 236.946,146.047 239,143.5C 239.388,144.428 240.055,145.095 241,145.5C 244.321,143.512 246.988,140.846 249,137.5C 248.412,134.041 247.578,130.541 246.5,127C 247.61,124.277 248.276,121.444 248.5,118.5C 247.024,114.242 246.19,109.909 246,105.5C 249.67,100.664 253.836,96.331 258.5,92.5 Z"/></g>
<g><path style="opacity:1" fill="#d8ba70" d="M 276.5,72.5 C 276.937,74.0744 277.937,75.2411 279.5,76C 279.311,78.295 277.977,80.295 275.5,82C 282.462,87.4908 289.628,87.6575 297,82.5C 297.483,83.448 297.649,84.448 297.5,85.5C 295.462,93.5022 292.129,100.836 287.5,107.5C 286.209,106.527 286.209,105.527 287.5,104.5C 285.305,103.231 283.139,103.231 281,104.5C 280.683,102.699 280.016,102.366 279,103.5C 275.026,101.805 274.859,99.4716 278.5,96.5C 276.102,95.1025 274.435,93.1025 273.5,90.5C 271.439,88.4369 269.106,86.7703 266.5,85.5C 267.127,84.5832 267.461,83.5832 267.5,82.5C 270.529,79.141 273.529,75.8076 276.5,72.5 Z"/></g>
<g><path style="opacity:1" fill="#ae8725" d="M 294.5,46.5 C 295.401,47.2905 296.068,48.2905 296.5,49.5C 291.591,54.9114 286.425,60.2448 281,65.5C 279.25,67.7343 277.75,70.0676 276.5,72.5C 273.529,75.8076 270.529,79.141 267.5,82.5C 265.5,83.8333 263.833,85.5 262.5,87.5C 256.89,91.7715 251.557,96.4382 246.5,101.5C 246.5,101.167 246.5,100.833 246.5,100.5C 257.528,88.4741 268.528,76.4741 279.5,64.5C 282.13,62.3719 284.63,60.0386 287,57.5C 288.582,53.106 291.082,49.4393 294.5,46.5 Z"/></g>
<g><path style="opacity:1" fill="#5e5655" d="M 298.5,47.5 C 302.787,53.3553 305.12,60.022 305.5,67.5C 302.151,94.5349 290.151,116.868 269.5,134.5C 269.737,133.209 269.404,132.209 268.5,131.5C 275.797,124.228 282.13,116.228 287.5,107.5C 292.129,100.836 295.462,93.5022 297.5,85.5C 302.777,73.9004 302.777,62.2338 297.5,50.5C 298.404,49.791 298.737,48.791 298.5,47.5 Z"/></g>
<g><path style="opacity:1" fill="#ceab69" d="M 296.5,49.5 C 297.167,49.5 297.5,49.8333 297.5,50.5C 302.777,62.2338 302.777,73.9004 297.5,85.5C 297.649,84.448 297.483,83.448 297,82.5C 289.628,87.6575 282.462,87.4908 275.5,82C 277.977,80.295 279.311,78.295 279.5,76C 277.937,75.2411 276.937,74.0744 276.5,72.5C 277.75,70.0676 279.25,67.7343 281,65.5C 286.425,60.2448 291.591,54.9114 296.5,49.5 Z"/></g>
<g><path style="opacity:1" fill="#7e5a18" d="M 293.5,45.5 C 294.167,45.5 294.5,45.8333 294.5,46.5C 291.082,49.4393 288.582,53.106 287,57.5C 284.63,60.0386 282.13,62.3719 279.5,64.5C 284.413,58.336 289.08,52.0027 293.5,45.5 Z"/></g>
<g><path style="opacity:1" fill="#1f1912" d="M 298.5,47.5 C 298.737,48.791 298.404,49.791 297.5,50.5C 297.5,49.8333 297.167,49.5 296.5,49.5C 296.068,48.2905 295.401,47.2905 294.5,46.5C 294.5,45.8333 294.167,45.5 293.5,45.5C 292.739,44.6091 291.739,43.9424 290.5,43.5C 289.702,45.0777 289.202,46.7444 289,48.5C 285.664,51.871 282.83,55.5376 280.5,59.5C 282.075,55.998 283.408,52.3313 284.5,48.5C 283.457,46.1436 282.457,43.8103 281.5,41.5C 275.378,41.2683 269.378,41.9349 263.5,43.5C 274.181,38.056 284.848,38.2227 295.5,44C 296.71,45.0391 297.71,46.2058 298.5,47.5 Z"/></g>
<g><path style="opacity:1" fill="#030202" d="M 280.5,59.5 C 269.785,73.3897 258.118,86.5564 245.5,99C 227.016,113.336 209.183,128.503 192,144.5C 191.536,145.094 191.369,145.761 191.5,146.5C 180.588,157.613 171.088,169.946 163,183.5C 161.293,185.909 160.46,188.575 160.5,191.5C 158.588,193.657 156.921,195.991 155.5,198.5C 153.692,197.082 153.025,195.082 153.5,192.5C 163.075,142.497 186.742,100.664 224.5,67C 236.111,56.8942 249.111,49.0609 263.5,43.5C 269.378,41.9349 275.378,41.2683 281.5,41.5C 282.457,43.8103 283.457,46.1436 284.5,48.5C 283.408,52.3313 282.075,55.998 280.5,59.5 Z"/></g>
<g><path style="opacity:1" fill="#797a2a" d="M 147.5,201.5 C 147.075,206.077 146.075,210.41 144.5,214.5C 144.124,209.739 145.124,205.405 147.5,201.5 Z"/></g>
<g><path style="opacity:1" fill="#28211d" d="M 153.5,192.5 C 153.025,195.082 153.692,197.082 155.5,198.5C 155.032,201.546 154.032,204.379 152.5,207C 152.667,207.5 152.833,208 153,208.5C 154.039,207.29 155.206,206.29 156.5,205.5C 154.625,208.588 153.292,211.922 152.5,215.5C 151.266,218.586 149.766,221.586 148,224.5C 147.833,223.333 147.667,222.167 147.5,221C 149.032,211.279 151.032,201.779 153.5,192.5 Z"/></g>
<g><path style="opacity:1" fill="#484818" d="M 297.5,220.5 C 296.753,223.362 295.086,225.362 292.5,226.5C 293.72,224.019 295.386,222.019 297.5,220.5 Z"/></g>
<g><path style="opacity:1" fill="#747528" d="M 144.5,215.5 C 144.549,218.374 144.216,221.208 143.5,224C 143.387,225.699 144.053,226.866 145.5,227.5C 146.919,228.451 148.585,228.784 150.5,228.5C 150.737,229.791 150.404,230.791 149.5,231.5C 148.817,229.824 147.483,229.157 145.5,229.5C 143.489,228.583 142.489,226.917 142.5,224.5C 142.678,221.263 143.345,218.263 144.5,215.5 Z"/></g>
<g><path style="opacity:1" fill="#464617" d="M 145.5,229.5 C 147.483,229.157 148.817,229.824 149.5,231.5C 148.945,235.397 147.945,239.063 146.5,242.5C 146.848,238.443 147.514,234.443 148.5,230.5C 147.209,230.737 146.209,230.404 145.5,229.5 Z"/></g>
<g><path style="opacity:1" fill="#323213" d="M 286.5,232.5 C 283.751,235.988 280.085,237.988 275.5,238.5C 279.122,236.507 282.789,234.507 286.5,232.5 Z"/></g>
<g><path style="opacity:1" fill="#9c9792" d="M 245.5,359.5 C 239.434,356.468 234.101,352.468 229.5,347.5C 230.909,341.224 231.909,334.891 232.5,328.5C 232.833,327.833 233.167,327.167 233.5,326.5C 233.936,320.674 235.103,315.007 237,309.5C 244.453,305.605 252.12,302.272 260,299.5C 261.796,290.522 263.63,281.522 265.5,272.5C 261.398,265.888 257.065,259.388 252.5,253C 245.674,253.942 239.174,256.109 233,259.5C 230.971,268.481 229.137,277.481 227.5,286.5C 231.167,291.833 234.833,297.167 238.5,302.5C 237.965,304.101 236.965,304.601 235.5,304C 231,299.5 226.5,295 222,290.5C 221.797,277.041 223.13,263.708 226,250.5C 232.761,247.538 239.594,244.704 246.5,242C 235.701,240.873 225.034,239.04 214.5,236.5C 214.5,235.833 214.167,235.5 213.5,235.5C 194.99,229.987 177.323,231.82 160.5,241C 157.537,242.961 154.871,245.294 152.5,248C 151.207,248.49 149.873,248.657 148.5,248.5C 149.054,241.618 150.554,234.951 153,228.5C 161.013,211.98 172.513,198.313 187.5,187.5C 214.131,167.474 243.798,160.64 276.5,167C 295.891,176.286 303.058,191.452 298,212.5C 293.975,222.526 287.142,230.026 277.5,235C 270.621,237.737 263.621,240.071 256.5,242C 261.965,250.431 267.799,258.597 274,266.5C 273.26,279.011 271.593,291.344 269,303.5C 273.845,309.872 278.678,316.205 283.5,322.5C 289.187,319.382 295.187,317.048 301.5,315.5C 303.054,305.784 304.554,296.118 306,286.5C 301.694,280.028 297.194,273.694 292.5,267.5C 289.167,268.833 285.833,270.167 282.5,271.5C 280.717,270.652 280.217,269.319 281,267.5C 285.054,262.943 289.554,258.943 294.5,255.5C 296.205,256.545 297.705,257.878 299,259.5C 303.944,267.443 309.277,275.109 315,282.5C 313.824,295.225 311.824,307.891 309,320.5C 308.691,321.766 308.191,322.933 307.5,324C 300.251,326.919 292.917,329.752 285.5,332.5C 282.954,344.061 280.287,355.561 277.5,367C 268.749,370.932 259.749,373.765 250.5,375.5C 250.238,374.022 250.571,372.689 251.5,371.5C 258.136,367.363 264.636,363.029 271,358.5C 273.079,348.853 274.745,339.187 276,329.5C 271.68,322.692 266.846,316.359 261.5,310.5C 255.838,312.664 250.172,314.83 244.5,317C 241.32,326.57 239.82,336.404 240,346.5C 241.752,349.672 243.752,352.672 246,355.5C 246.579,356.928 246.412,358.262 245.5,359.5 Z M 244.5,260.5 C 242.358,261.745 240.358,263.245 238.5,265C 236.975,271.459 235.642,277.959 234.5,284.5C 236.766,288.609 239.266,292.609 242,296.5C 246.067,297.367 249.567,296.2 252.5,293C 254.101,286.559 255.435,280.059 256.5,273.5C 254.57,269.727 252.403,266.06 250,262.5C 248.556,260.845 246.722,260.178 244.5,260.5 Z M 287.5,275.5 C 285.208,277.267 282.542,278.267 279.5,278.5C 277.784,286.46 276.617,294.46 276,302.5C 278.845,306.205 281.678,309.872 284.5,313.5C 287.314,311.895 290.314,310.895 293.5,310.5C 294.96,303.2 296.293,295.867 297.5,288.5C 294.865,283.529 291.531,279.195 287.5,275.5 Z"/></g>
<g><path style="opacity:1" fill="#4e4f1a" d="M 218.5,239.5 C 221.553,239.111 224.22,239.777 226.5,241.5C 223.505,241.706 220.838,241.04 218.5,239.5 Z"/></g>
<g><path style="opacity:1" fill="#241d1b" d="M 281.5,226.5 C 282.5,226.833 283.167,227.5 283.5,228.5C 269.099,237.282 253.432,240.782 236.5,239C 220.74,234.681 204.74,231.848 188.5,230.5C 174.333,230.668 162.167,235.668 152,245.5C 151.506,243.866 151.34,242.199 151.5,240.5C 153.434,239.89 155.101,238.89 156.5,237.5C 157.71,237.068 158.71,236.401 159.5,235.5C 167.114,231.963 175.114,229.63 183.5,228.5C 187.167,228.5 190.833,228.5 194.5,228.5C 210.646,231.953 226.979,234.953 243.5,237.5C 246.713,237.81 249.713,237.477 252.5,236.5C 254.415,236.784 256.081,236.451 257.5,235.5C 259.861,235.326 262.194,234.993 264.5,234.5C 270.33,232.221 275.997,229.554 281.5,226.5 Z"/></g>
<g><path style="opacity:1" fill="#8a8b32" d="M 213.5,235.5 C 214.167,235.5 214.5,235.833 214.5,236.5C 215.59,237.857 216.924,238.857 218.5,239.5C 213.64,238.867 208.973,237.867 204.5,236.5C 207.713,236.81 210.713,236.477 213.5,235.5 Z"/></g>
<g><path style="opacity:1" fill="#666723" d="M 197.5,235.5 C 192.489,235.334 187.489,235.501 182.5,236C 186.025,236.179 189.359,236.679 192.5,237.5C 186.794,237.829 181.128,237.495 175.5,236.5C 182.898,234.41 190.231,234.077 197.5,235.5 Z"/></g>
<g><path style="opacity:1" fill="#7a541d" d="M 178.5,218.5 C 170.881,222.597 164.215,228.097 158.5,235C 158.728,235.399 159.062,235.565 159.5,235.5C 158.71,236.401 157.71,237.068 156.5,237.5C 156.062,237.565 155.728,237.399 155.5,237C 161.301,228.351 168.967,222.184 178.5,218.5 Z"/></g>
<g><path style="opacity:1" fill="#e5c75b" d="M 268.5,199.5 C 267.314,201.194 267.481,202.861 269,204.5C 271.974,206.5 274.474,209 276.5,212C 277.449,212.617 278.282,212.451 279,211.5C 281.374,214.914 283.207,218.581 284.5,222.5C 283.5,223.833 282.5,225.167 281.5,226.5C 275.997,229.554 270.33,232.221 264.5,234.5C 265.028,233.279 265.695,232.113 266.5,231C 270.74,230.744 272.74,228.578 272.5,224.5C 270.897,224.688 269.563,224.188 268.5,223C 269.451,219.943 269.784,216.777 269.5,213.5C 268.5,213.5 267.5,213.5 266.5,213.5C 265.624,209.538 264.958,205.538 264.5,201.5C 265.605,200.4 266.938,199.733 268.5,199.5 Z"/></g>
<g><path style="opacity:1" fill="#463912" d="M 274.5,170.5 C 277.331,171.079 279.664,172.412 281.5,174.5C 279.341,180.328 275.675,184.995 270.5,188.5C 268.231,191.385 266.231,194.385 264.5,197.5C 257.842,200.509 250.842,202.676 243.5,204C 242.619,204.708 241.953,205.542 241.5,206.5C 237.172,206.322 234.338,208.322 233,212.5C 231.977,218.793 231.311,225.126 231,231.5C 228.959,232.423 226.792,232.756 224.5,232.5C 221.86,232.046 219.527,230.879 217.5,229C 213.23,227.925 208.897,227.425 204.5,227.5C 204.666,221.824 204.499,216.157 204,210.5C 202.989,209.663 201.822,209.33 200.5,209.5C 205.65,208.349 210.984,208.183 216.5,209C 216.687,214.406 216.853,219.906 217,225.5C 219.63,228.149 222.63,230.149 226,231.5C 227.326,231.245 228.326,230.578 229,229.5C 229.764,223.96 229.597,218.46 228.5,213C 229.078,211.189 229.578,209.355 230,207.5C 233.59,205.642 237.424,204.476 241.5,204C 242.056,203.617 242.389,203.117 242.5,202.5C 246.719,201.402 251.052,200.402 255.5,199.5C 260.416,198.914 263.416,196.247 264.5,191.5C 266.229,190.883 267.729,189.883 269,188.5C 269.92,185.062 271.587,182.062 274,179.5C 274.325,176.204 274.492,173.204 274.5,170.5 Z"/></g>
<g><path style="opacity:1" fill="#b89d31" d="M 258.5,202.5 C 256.709,203.391 254.876,204.391 253,205.5C 251.662,215.784 251.162,226.117 251.5,236.5C 250.172,231.881 249.506,226.881 249.5,221.5C 249.667,216.5 249.833,211.5 250,206.5C 250.717,205.956 251.217,205.289 251.5,204.5C 253.515,203.076 255.848,202.41 258.5,202.5 Z"/></g>
<g><path style="opacity:1" fill="#978229" d="M 251.5,204.5 C 251.217,205.289 250.717,205.956 250,206.5C 249.833,211.5 249.667,216.5 249.5,221.5C 249.506,226.881 250.172,231.881 251.5,236.5C 251.833,236.5 252.167,236.5 252.5,236.5C 249.713,237.477 246.713,237.81 243.5,237.5C 243.334,227.494 243.5,217.494 244,207.5C 246.194,205.822 248.694,204.822 251.5,204.5 Z"/></g>
<g><path style="opacity:1" fill="#b17e2e" d="M 182.5,217.5 C 183.833,217.5 185.167,217.5 186.5,217.5C 186.5,220.833 186.5,224.167 186.5,227.5C 185.209,227.263 184.209,227.596 183.5,228.5C 175.114,229.63 167.114,231.963 159.5,235.5C 159.062,235.565 158.728,235.399 158.5,235C 164.215,228.097 170.881,222.597 178.5,218.5C 179.959,218.567 181.292,218.234 182.5,217.5 Z"/></g>
<g><path style="opacity:1" fill="#ddbc3e" d="M 264.5,201.5 C 264.958,205.538 265.624,209.538 266.5,213.5C 264.5,213.167 262.5,212.833 260.5,212.5C 260.089,220.286 259.089,227.953 257.5,235.5C 256.081,236.451 254.415,236.784 252.5,236.5C 252.167,236.5 251.833,236.5 251.5,236.5C 251.162,226.117 251.662,215.784 253,205.5C 254.876,204.391 256.709,203.391 258.5,202.5C 260.621,202.675 262.621,202.341 264.5,201.5 Z"/></g>
<g><path style="opacity:1" fill="#edcc4c" d="M 266.5,213.5 C 267.5,213.5 268.5,213.5 269.5,213.5C 269.784,216.777 269.451,219.943 268.5,223C 269.563,224.188 270.897,224.688 272.5,224.5C 272.74,228.578 270.74,230.744 266.5,231C 265.695,232.113 265.028,233.279 264.5,234.5C 262.194,234.993 259.861,235.326 257.5,235.5C 259.089,227.953 260.089,220.286 260.5,212.5C 262.5,212.833 264.5,213.167 266.5,213.5 Z"/></g>
<g><path style="opacity:1" fill="#624e1a" d="M 264.5,197.5 C 263.833,198.5 263.167,199.5 262.5,200.5C 260.847,200.66 259.514,201.326 258.5,202.5C 255.848,202.41 253.515,203.076 251.5,204.5C 248.694,204.822 246.194,205.822 244,207.5C 243.5,217.494 243.334,227.494 243.5,237.5C 226.979,234.953 210.646,231.953 194.5,228.5C 193.617,223.897 193.283,219.23 193.5,214.5C 190.126,214.674 186.793,215.174 183.5,216C 182.944,216.383 182.611,216.883 182.5,217.5C 181.292,218.234 179.959,218.567 178.5,218.5C 179.936,217.571 181.269,216.405 182.5,215C 187.96,212.769 193.626,211.436 199.5,211C 200.056,210.617 200.389,210.117 200.5,209.5C 201.822,209.33 202.989,209.663 204,210.5C 204.499,216.157 204.666,221.824 204.5,227.5C 208.897,227.425 213.23,227.925 217.5,229C 219.527,230.879 221.86,232.046 224.5,232.5C 230.055,233.574 235.555,233.574 241,232.5C 241.5,223.84 241.666,215.173 241.5,206.5C 241.953,205.542 242.619,204.708 243.5,204C 250.842,202.676 257.842,200.509 264.5,197.5 Z"/></g>
<g><path style="opacity:1" fill="#5e5653" d="M 293.5,184.5 C 299.671,198.072 298.504,211.072 290,223.5C 287.713,225.054 285.546,226.721 283.5,228.5C 283.167,227.5 282.5,226.833 281.5,226.5C 282.5,225.167 283.5,223.833 284.5,222.5C 289.064,219.065 291.898,214.399 293,208.5C 293.697,202.463 293.53,196.463 292.5,190.5C 293.461,188.735 293.795,186.735 293.5,184.5 Z"/></g>
<g><path style="opacity:1" fill="#504416" d="M 241.5,206.5 C 241.666,215.173 241.5,223.84 241,232.5C 235.555,233.574 230.055,233.574 224.5,232.5C 226.792,232.756 228.959,232.423 231,231.5C 231.311,225.126 231.977,218.793 233,212.5C 234.338,208.322 237.172,206.322 241.5,206.5 Z"/></g>
<g><path style="opacity:1" fill="#392e10" d="M 242.5,202.5 C 242.389,203.117 242.056,203.617 241.5,204C 237.424,204.476 233.59,205.642 230,207.5C 229.578,209.355 229.078,211.189 228.5,213C 229.597,218.46 229.764,223.96 229,229.5C 228.326,230.578 227.326,231.245 226,231.5C 222.63,230.149 219.63,228.149 217,225.5C 216.853,219.906 216.687,214.406 216.5,209C 210.984,208.183 205.65,208.349 200.5,209.5C 200.389,210.117 200.056,210.617 199.5,211C 193.626,211.436 187.96,212.769 182.5,215C 181.269,216.405 179.936,217.571 178.5,218.5C 168.967,222.184 161.301,228.351 155.5,237C 155.728,237.399 156.062,237.565 156.5,237.5C 155.101,238.89 153.434,239.89 151.5,240.5C 151.41,237.848 152.076,235.515 153.5,233.5C 153.351,234.552 153.517,235.552 154,236.5C 163.64,224.105 175.806,215.272 190.5,210C 197.531,208.739 204.531,207.072 211.5,205C 221.919,204.797 232.252,203.963 242.5,202.5 Z"/></g>
<g><path style="opacity:1" fill="#8a6623" d="M 194.5,228.5 C 190.833,228.5 187.167,228.5 183.5,228.5C 184.209,227.596 185.209,227.263 186.5,227.5C 186.5,224.167 186.5,220.833 186.5,217.5C 185.167,217.5 183.833,217.5 182.5,217.5C 182.611,216.883 182.944,216.383 183.5,216C 186.793,215.174 190.126,214.674 193.5,214.5C 193.283,219.23 193.617,223.897 194.5,228.5 Z"/></g>
<g><path style="opacity:1" fill="#dbbd6c" d="M 289.5,184.5 C 291.008,186.181 292.008,188.181 292.5,190.5C 293.53,196.463 293.697,202.463 293,208.5C 291.898,214.399 289.064,219.065 284.5,222.5C 283.207,218.581 281.374,214.914 279,211.5C 278.282,212.451 277.449,212.617 276.5,212C 274.474,209 271.974,206.5 269,204.5C 267.481,202.861 267.314,201.194 268.5,199.5C 277.167,196.681 284.167,191.681 289.5,184.5 Z"/></g>
<g><path style="opacity:1" fill="#c4993a" d="M 287.5,180.5 C 288.674,181.514 289.34,182.847 289.5,184.5C 284.167,191.681 277.167,196.681 268.5,199.5C 266.938,199.733 265.605,200.4 264.5,201.5C 262.621,202.341 260.621,202.675 258.5,202.5C 259.514,201.326 260.847,200.66 262.5,200.5C 270.188,193.158 278.522,186.491 287.5,180.5 Z"/></g>
<g><path style="opacity:1" fill="#755717" d="M 281.5,174.5 C 282.833,175.167 283.833,176.167 284.5,177.5C 279.486,181.351 275.319,186.017 272,191.5C 269.561,193.629 267.061,195.629 264.5,197.5C 266.231,194.385 268.231,191.385 270.5,188.5C 275.675,184.995 279.341,180.328 281.5,174.5 Z"/></g>
<g><path style="opacity:1" fill="#9f7720" d="M 284.5,177.5 C 285.833,178.167 286.833,179.167 287.5,180.5C 278.522,186.491 270.188,193.158 262.5,200.5C 263.167,199.5 263.833,198.5 264.5,197.5C 267.061,195.629 269.561,193.629 272,191.5C 275.319,186.017 279.486,181.351 284.5,177.5 Z"/></g>
<g><path style="opacity:1" fill="#2c2320" d="M 272.5,168.5 C 281.919,170.704 288.919,176.037 293.5,184.5C 293.795,186.735 293.461,188.735 292.5,190.5C 292.008,188.181 291.008,186.181 289.5,184.5C 289.34,182.847 288.674,181.514 287.5,180.5C 286.833,179.167 285.833,178.167 284.5,177.5C 283.833,176.167 282.833,175.167 281.5,174.5C 279.664,172.412 277.331,171.079 274.5,170.5C 273.833,169.833 273.167,169.167 272.5,168.5 Z"/></g>
<g><path style="opacity:1" fill="#141008" d="M 272.5,168.5 C 269.507,167.865 266.507,167.699 263.5,168C 265.715,169.044 268.048,169.71 270.5,170C 271.804,170.804 272.471,171.971 272.5,173.5C 270.265,178.303 267.765,182.97 265,187.5C 264.51,188.793 264.343,190.127 264.5,191.5C 263.416,196.247 260.416,198.914 255.5,199.5C 257.25,198.527 258.75,197.193 260,195.5C 262.487,188.212 264.653,180.879 266.5,173.5C 264.176,173.338 262.509,172.172 261.5,170C 257.294,169.739 253.127,169.239 249,168.5C 240.862,169.731 232.695,170.731 224.5,171.5C 226.96,170.109 229.626,168.942 232.5,168C 243.753,165.864 255.086,165.197 266.5,166C 268.723,166.566 270.723,167.4 272.5,168.5 Z"/></g>
<g><path style="opacity:1" fill="#2d210a" d="M 272.5,168.5 C 273.167,169.167 273.833,169.833 274.5,170.5C 274.492,173.204 274.325,176.204 274,179.5C 271.587,182.062 269.92,185.062 269,188.5C 267.729,189.883 266.229,190.883 264.5,191.5C 264.343,190.127 264.51,188.793 265,187.5C 267.765,182.97 270.265,178.303 272.5,173.5C 272.471,171.971 271.804,170.804 270.5,170C 268.048,169.71 265.715,169.044 263.5,168C 266.507,167.699 269.507,167.865 272.5,168.5 Z"/></g>
<g><path style="opacity:1" fill="#030201" d="M 255.5,199.5 C 251.052,200.402 246.719,201.402 242.5,202.5C 232.252,203.963 221.919,204.797 211.5,205C 204.531,207.072 197.531,208.739 190.5,210C 175.806,215.272 163.64,224.105 154,236.5C 153.517,235.552 153.351,234.552 153.5,233.5C 160.202,217.613 170.202,204.113 183.5,193C 195.48,182.676 209.147,175.509 224.5,171.5C 232.695,170.731 240.862,169.731 249,168.5C 253.127,169.239 257.294,169.739 261.5,170C 262.509,172.172 264.176,173.338 266.5,173.5C 264.653,180.879 262.487,188.212 260,195.5C 258.75,197.193 257.25,198.527 255.5,199.5 Z"/></g>
<g><path style="opacity:1" fill="#5b5c1f" d="M 228.5,246.5 C 225.753,248.243 223.753,250.576 222.5,253.5C 222.362,249.307 224.362,246.973 228.5,246.5 Z"/></g>
<g><path style="opacity:1" fill="#18110f" d="M 251.5,242.5 C 253.39,242.297 254.89,242.963 256,244.5C 261.087,252.341 266.42,260.008 272,267.5C 270.58,278.509 268.746,289.509 266.5,300.5C 266.667,301.5 266.833,302.5 267,303.5C 272.054,310.38 276.887,317.38 281.5,324.5C 279.61,324.703 278.11,324.037 277,322.5C 273.723,317.586 270.223,312.92 266.5,308.5C 265.89,306.566 264.89,304.899 263.5,303.5C 263.5,303.167 263.5,302.833 263.5,302.5C 264.825,294.537 265.825,286.537 266.5,278.5C 268.108,275.062 268.942,271.396 269,267.5C 264.812,261.766 260.646,256.099 256.5,250.5C 255.167,248.5 253.833,246.5 252.5,244.5C 252.167,243.833 251.833,243.167 251.5,242.5 Z"/></g>
<g><path style="opacity:1" fill="#3f4015" d="M 146.5,248.5 C 147.167,248.5 147.833,248.5 148.5,248.5C 150.322,251.038 152.322,251.038 154.5,248.5C 155.941,250.833 155.275,252.166 152.5,252.5C 151.003,251.694 149.336,251.028 147.5,250.5C 146.702,250.043 146.369,249.376 146.5,248.5 Z"/></g>
<g><path style="opacity:1" fill="#685a23" d="M 252.5,244.5 C 253.833,246.5 255.167,248.5 256.5,250.5C 256.158,251.338 255.492,251.672 254.5,251.5C 253.5,250.833 252.5,250.167 251.5,249.5C 251.134,248.305 250.301,247.639 249,247.5C 242.738,250.55 236.238,252.883 229.5,254.5C 229.414,253.504 229.748,252.671 230.5,252C 237.728,249.293 245.061,246.793 252.5,244.5 Z"/></g>
<g><path style="opacity:1" fill="#403a28" d="M 251.5,242.5 C 251.833,243.167 252.167,243.833 252.5,244.5C 245.061,246.793 237.728,249.293 230.5,252C 229.748,252.671 229.414,253.504 229.5,254.5C 227.715,257.317 226.382,260.317 225.5,263.5C 225.701,259.426 226.368,255.426 227.5,251.5C 235.34,248.108 243.34,245.108 251.5,242.5 Z"/></g>
<g><path style="opacity:1" fill="#51521b" d="M 296.5,253.5 C 293.281,253.776 290.615,255.109 288.5,257.5C 289.72,252.902 292.387,251.568 296.5,253.5 Z"/></g>
<g><path style="opacity:1" fill="#50501b" d="M 152.5,254.5 C 152.008,256.819 151.008,258.819 149.5,260.5C 149.461,257.911 150.461,255.911 152.5,254.5 Z"/></g>
<g><path style="opacity:1" fill="#717227" d="M 222.5,256.5 C 221.207,267.802 220.207,279.136 219.5,290.5C 218.839,288.866 218.506,287.033 218.5,285C 218.912,275.228 220.245,265.728 222.5,256.5 Z"/></g>
<g><path style="opacity:1" fill="#1d1818" d="M 251.5,249.5 C 244.506,251.747 237.672,254.414 231,257.5C 229.362,266.859 227.528,276.192 225.5,285.5C 227.639,289.103 229.472,292.77 231,296.5C 227.134,293.487 224.3,289.82 222.5,285.5C 224.149,278.242 225.149,270.909 225.5,263.5C 226.382,260.317 227.715,257.317 229.5,254.5C 236.238,252.883 242.738,250.55 249,247.5C 250.301,247.639 251.134,248.305 251.5,249.5 Z"/></g>
<g><path style="opacity:1" fill="#bebf4b" d="M 214.5,236.5 C 225.034,239.04 235.701,240.873 246.5,242C 239.594,244.704 232.761,247.538 226,250.5C 223.13,263.708 221.797,277.041 222,290.5C 226.5,295 231,299.5 235.5,304C 236.965,304.601 237.965,304.101 238.5,302.5C 234.833,297.167 231.167,291.833 227.5,286.5C 229.137,277.481 230.971,268.481 233,259.5C 239.174,256.109 245.674,253.942 252.5,253C 257.065,259.388 261.398,265.888 265.5,272.5C 263.63,281.522 261.796,290.522 260,299.5C 252.12,302.272 244.453,305.605 237,309.5C 235.103,315.007 233.936,320.674 233.5,326.5C 232.521,323.375 232.187,320.042 232.5,316.5C 233.924,314.485 234.59,312.152 234.5,309.5C 236.078,307.625 235.745,306.292 233.5,305.5C 231.833,303.167 229.833,301.167 227.5,299.5C 226.833,298.833 226.167,298.167 225.5,297.5C 224.833,294.833 223.167,293.167 220.5,292.5C 220.672,291.508 220.338,290.842 219.5,290.5C 220.207,279.136 221.207,267.802 222.5,256.5C 222.5,255.5 222.5,254.5 222.5,253.5C 223.753,250.576 225.753,248.243 228.5,246.5C 230.663,245.531 232.996,244.698 235.5,244C 232.662,242.745 229.662,241.911 226.5,241.5C 224.22,239.777 221.553,239.111 218.5,239.5C 216.924,238.857 215.59,237.857 214.5,236.5 Z M 244.5,260.5 C 242.358,261.745 240.358,263.245 238.5,265C 236.975,271.459 235.642,277.959 234.5,284.5C 236.766,288.609 239.266,292.609 242,296.5C 246.067,297.367 249.567,296.2 252.5,293C 254.101,286.559 255.435,280.059 256.5,273.5C 254.57,269.727 252.403,266.06 250,262.5C 248.556,260.845 246.722,260.178 244.5,260.5 Z"/></g>
<g><path style="opacity:1" fill="#444518" d="M 238.5,259.5 C 236.101,262.113 234.435,265.113 233.5,268.5C 233.678,265.784 234.178,263.117 235,260.5C 236.011,259.663 237.178,259.33 238.5,259.5 Z"/></g>
<g><path style="opacity:0.821" fill="#100f05" d="M 259.5,291.5 C 257.926,293.102 257.259,295.102 257.5,297.5C 252.313,300.674 246.647,302.674 240.5,303.5C 240.245,300.984 239.411,298.65 238,296.5C 235.667,293.5 233.333,290.5 231,287.5C 231.593,281.178 232.427,274.844 233.5,268.5C 234.435,265.113 236.101,262.113 238.5,259.5C 242.49,257.252 246.823,256.085 251.5,256C 255.32,260.166 258.82,264.666 262,269.5C 261.341,276.78 260.508,284.113 259.5,291.5 Z M 244.5,260.5 C 242.358,261.745 240.358,263.245 238.5,265C 236.975,271.459 235.642,277.959 234.5,284.5C 236.766,288.609 239.266,292.609 242,296.5C 246.067,297.367 249.567,296.2 252.5,293C 254.101,286.559 255.435,280.059 256.5,273.5C 254.57,269.727 252.403,266.06 250,262.5C 248.556,260.845 246.722,260.178 244.5,260.5 Z"/></g>
<g><path style="opacity:1" fill="#544b26" d="M 256.5,250.5 C 260.646,256.099 264.812,261.766 269,267.5C 268.942,271.396 268.108,275.062 266.5,278.5C 266.75,275.786 266.917,273.119 267,270.5C 262.611,264.284 258.444,257.951 254.5,251.5C 255.492,251.672 256.158,251.338 256.5,250.5 Z"/></g>
<g><path style="opacity:1" fill="#5d5e20" d="M 149.5,262.5 C 148.33,270.528 148.33,278.528 149.5,286.5C 148.883,286.389 148.383,286.056 148,285.5C 147.833,282.5 147.667,279.5 147.5,276.5C 147.354,271.576 148.021,266.909 149.5,262.5 Z"/></g>
<g><path style="opacity:1" fill="#bdbe4a" d="M 213.5,235.5 C 210.713,236.477 207.713,236.81 204.5,236.5C 202.05,236.702 199.717,236.369 197.5,235.5C 190.231,234.077 182.898,234.41 175.5,236.5C 181.128,237.495 186.794,237.829 192.5,237.5C 197.638,238.947 202.971,240.114 208.5,241C 211.783,242.561 214.617,244.727 217,247.5C 218.41,262.606 215.91,276.94 209.5,290.5C 208.094,290.973 207.427,291.973 207.5,293.5C 203.586,298.411 199.253,298.744 194.5,294.5C 191.697,292.785 188.697,291.452 185.5,290.5C 181.756,288.848 177.756,288.348 173.5,289C 176.474,289.993 179.474,290.826 182.5,291.5C 183.911,293.539 185.911,294.539 188.5,294.5C 189.911,296.914 191.911,298.581 194.5,299.5C 195.167,300.5 195.833,301.5 196.5,302.5C 196.685,304.196 197.519,305.529 199,306.5C 199.495,308.473 199.662,310.473 199.5,312.5C 197.432,316.379 195.766,320.379 194.5,324.5C 190.99,327.358 188.657,331.024 187.5,335.5C 184.828,339.243 182.162,342.91 179.5,346.5C 176.48,348.523 174.146,351.19 172.5,354.5C 169.452,356.882 166.785,359.548 164.5,362.5C 160.709,365.118 157.043,367.951 153.5,371C 151.231,371.758 149.064,371.591 147,370.5C 146.264,367.408 146.431,364.408 147.5,361.5C 148.222,361.082 148.722,360.416 149,359.5C 149.497,356.854 149.664,354.187 149.5,351.5C 149.141,331.829 148.974,312.163 149,292.5C 150.167,291.333 151.333,290.167 152.5,289C 151.309,288.302 150.309,287.469 149.5,286.5C 148.33,278.528 148.33,270.528 149.5,262.5C 149.5,261.833 149.5,261.167 149.5,260.5C 151.008,258.819 152.008,256.819 152.5,254.5C 152.5,253.833 152.5,253.167 152.5,252.5C 155.275,252.166 155.941,250.833 154.5,248.5C 152.322,251.038 150.322,251.038 148.5,248.5C 149.873,248.657 151.207,248.49 152.5,248C 154.871,245.294 157.537,242.961 160.5,241C 177.323,231.82 194.99,229.987 213.5,235.5 Z"/></g>
<g><path style="opacity:1" fill="#9c9893" d="M 175.5,239.5 C 187.58,238.736 199.247,240.569 210.5,245C 214.347,247.339 216.014,250.839 215.5,255.5C 215.413,269.921 211.413,283.088 203.5,295C 195.923,291.585 187.923,288.919 179.5,287C 170.165,285.558 160.832,285.058 151.5,285.5C 149.776,275.312 150.61,265.312 154,255.5C 159.096,247.218 166.263,241.885 175.5,239.5 Z"/></g>
<g><path style="opacity:1" fill="#715c1e" d="M 186.5,284.5 C 180.955,282.858 175.289,281.858 169.5,281.5C 164.156,281.666 158.823,281.499 153.5,281C 154.044,280.283 154.711,279.783 155.5,279.5C 162.036,273.105 169.702,268.772 178.5,266.5C 178.334,270.846 178.501,275.179 179,279.5C 181.5,280.667 184,281.833 186.5,283C 187.738,283.69 187.738,284.19 186.5,284.5 Z"/></g>
<g><path style="opacity:1" fill="#837326" d="M 192.5,270.5 C 195.829,274.161 197.829,278.494 198.5,283.5C 196.748,280.328 194.748,277.328 192.5,274.5C 192.5,273.167 192.5,271.833 192.5,270.5 Z"/></g>
<g><path style="opacity:1" fill="#5e5754" d="M 211.5,248.5 C 212.993,249.312 213.66,250.645 213.5,252.5C 213.269,263.891 211.102,274.891 207,285.5C 205.974,288.239 204.474,290.572 202.5,292.5C 202.5,290.833 202.5,289.167 202.5,287.5C 206.959,276.31 209.292,264.643 209.5,252.5C 209.5,251.833 209.5,251.167 209.5,250.5C 211.203,251.66 211.869,250.993 211.5,248.5 Z"/></g>
<g><path style="opacity:1" fill="#f5df7c" d="M 209.5,252.5 C 209.292,264.643 206.959,276.31 202.5,287.5C 202.167,287.5 201.833,287.5 201.5,287.5C 200.143,286.41 199.143,285.076 198.5,283.5C 197.829,278.494 195.829,274.161 192.5,270.5C 191.61,268.218 191.444,265.885 192,263.5C 198.203,260.473 204.036,256.806 209.5,252.5 Z"/></g>
<g><path style="opacity:1" fill="#3e3411" d="M 199.5,244.5 C 202.282,245.933 205.282,247.1 208.5,248C 209.252,248.671 209.586,249.504 209.5,250.5C 202.359,253.796 195.859,258.13 190,263.5C 189.162,266.481 189.995,268.814 192.5,270.5C 192.5,271.833 192.5,273.167 192.5,274.5C 191.211,272.752 189.711,272.419 188,273.5C 186.738,277.909 187.572,281.743 190.5,285C 188.934,285.765 187.601,285.598 186.5,284.5C 187.738,284.19 187.738,283.69 186.5,283C 184,281.833 181.5,280.667 179,279.5C 178.501,275.179 178.334,270.846 178.5,266.5C 169.702,268.772 162.036,273.105 155.5,279.5C 157.591,276.229 159.924,273.063 162.5,270C 166.303,267.929 169.97,265.596 173.5,263C 178.495,263.082 183.495,263.082 188.5,263C 192.348,259.584 196.348,256.417 200.5,253.5C 203.324,253.011 204.657,251.344 204.5,248.5C 201.361,247.807 198.361,246.64 195.5,245C 196.793,244.51 198.127,244.343 199.5,244.5 Z"/></g>
<g><path style="opacity:1" fill="#bfa338" d="M 209.5,250.5 C 209.5,251.167 209.5,251.833 209.5,252.5C 204.036,256.806 198.203,260.473 192,263.5C 191.444,265.885 191.61,268.218 192.5,270.5C 189.995,268.814 189.162,266.481 190,263.5C 195.859,258.13 202.359,253.796 209.5,250.5 Z"/></g>
<g><path style="opacity:1" fill="#181310" d="M 199.5,244.5 C 203.915,244.861 207.915,246.194 211.5,248.5C 211.869,250.993 211.203,251.66 209.5,250.5C 209.586,249.504 209.252,248.671 208.5,248C 205.282,247.1 202.282,245.933 199.5,244.5 Z"/></g>
<g><path style="opacity:1" fill="#060502" d="M 200.5,253.5 C 196.348,256.417 192.348,259.584 188.5,263C 183.495,263.082 178.495,263.082 173.5,263C 169.97,265.596 166.303,267.929 162.5,270C 159.924,273.063 157.591,276.229 155.5,279.5C 154.711,279.783 154.044,280.283 153.5,281C 158.823,281.499 164.156,281.666 169.5,281.5C 167.167,282.167 164.833,282.833 162.5,283.5C 159.119,283.46 155.786,283.793 152.5,284.5C 149.399,268.966 153.733,256.133 165.5,246C 167.407,244.878 169.407,244.045 171.5,243.5C 180.896,242.575 189.896,244.075 198.5,248C 200.155,249.444 200.822,251.278 200.5,253.5 Z"/></g>
<g><path style="opacity:1" fill="#262114" d="M 199.5,244.5 C 198.127,244.343 196.793,244.51 195.5,245C 198.361,246.64 201.361,247.807 204.5,248.5C 204.657,251.344 203.324,253.011 200.5,253.5C 200.822,251.278 200.155,249.444 198.5,248C 189.896,244.075 180.896,242.575 171.5,243.5C 174.695,241.97 178.195,241.304 182,241.5C 188.138,241.494 193.971,242.494 199.5,244.5 Z"/></g>
<g><path style="opacity:1" fill="#2e2815" d="M 192.5,274.5 C 194.748,277.328 196.748,280.328 198.5,283.5C 198.247,285.827 198.914,287.827 200.5,289.5C 201.298,289.043 201.631,288.376 201.5,287.5C 201.833,287.5 202.167,287.5 202.5,287.5C 202.5,289.167 202.5,290.833 202.5,292.5C 202.44,293.043 202.107,293.376 201.5,293.5C 189.553,286.263 176.553,282.929 162.5,283.5C 164.833,282.833 167.167,282.167 169.5,281.5C 175.289,281.858 180.955,282.858 186.5,284.5C 187.601,285.598 188.934,285.765 190.5,285C 187.572,281.743 186.738,277.909 188,273.5C 189.711,272.419 191.211,272.752 192.5,274.5 Z"/></g>
<g><path style="opacity:1" fill="#867428" d="M 198.5,283.5 C 199.143,285.076 200.143,286.41 201.5,287.5C 201.631,288.376 201.298,289.043 200.5,289.5C 198.914,287.827 198.247,285.827 198.5,283.5 Z"/></g>
<g><path style="opacity:1" fill="#656522" d="M 185.5,290.5 C 184.209,290.263 183.209,290.596 182.5,291.5C 179.474,290.826 176.474,289.993 173.5,289C 177.756,288.348 181.756,288.848 185.5,290.5 Z"/></g>
<g><path style="opacity:1" fill="#56561d" d="M 209.5,290.5 C 209.573,292.027 208.906,293.027 207.5,293.5C 207.427,291.973 208.094,290.973 209.5,290.5 Z"/></g>
<g><path style="opacity:1" fill="#3b3b15" d="M 185.5,290.5 C 188.697,291.452 191.697,292.785 194.5,294.5C 192.309,293.709 190.309,293.709 188.5,294.5C 185.911,294.539 183.911,293.539 182.5,291.5C 183.209,290.596 184.209,290.263 185.5,290.5 Z"/></g>
<g><path style="opacity:1" fill="#6e6f26" d="M 220.5,292.5 C 223.167,293.167 224.833,294.833 225.5,297.5C 223.5,296.167 221.833,294.5 220.5,292.5 Z"/></g>
<g><path style="opacity:1" fill="#424316" d="M 259.5,291.5 C 259.741,293.898 259.074,295.898 257.5,297.5C 257.259,295.102 257.926,293.102 259.5,291.5 Z"/></g>
<g><path style="opacity:1" fill="#4a4b19" d="M 188.5,294.5 C 191.089,295.419 193.089,297.086 194.5,299.5C 191.911,298.581 189.911,296.914 188.5,294.5 Z"/></g>
<g><path style="opacity:1" fill="#3f4015" d="M 227.5,299.5 C 229.833,301.167 231.833,303.167 233.5,305.5C 230.5,304.5 228.5,302.5 227.5,299.5 Z"/></g>
<g><path style="opacity:1" fill="#968539" d="M 263.5,303.5 C 264.89,304.899 265.89,306.566 266.5,308.5C 265.833,308.5 265.167,308.5 264.5,308.5C 263.833,308.167 263.167,307.833 262.5,307.5C 262.167,306.833 261.833,306.167 261.5,305.5C 261.833,304.5 262.5,303.833 263.5,303.5 Z"/></g>
<g><path style="opacity:1" fill="#757628" d="M 196.5,302.5 C 200.424,305.002 201.424,308.336 199.5,312.5C 199.662,310.473 199.495,308.473 199,306.5C 197.519,305.529 196.685,304.196 196.5,302.5 Z"/></g>
<g><path style="opacity:1" fill="#615624" d="M 263.5,302.5 C 263.5,302.833 263.5,303.167 263.5,303.5C 262.5,303.833 261.833,304.5 261.5,305.5C 253.972,308.565 246.305,311.232 238.5,313.5C 239.574,312.115 240.907,310.949 242.5,310C 249.486,307.394 256.486,304.894 263.5,302.5 Z"/></g>
<g><path style="opacity:1" fill="#53531b" d="M 315.5,302.5 C 315.59,305.152 314.924,307.485 313.5,309.5C 313.41,306.848 314.076,304.515 315.5,302.5 Z"/></g>
<g><path style="opacity:1" fill="#443f2c" d="M 266.5,278.5 C 265.825,286.537 264.825,294.537 263.5,302.5C 256.486,304.894 249.486,307.394 242.5,310C 240.907,310.949 239.574,312.115 238.5,313.5C 237.796,319.761 236.463,325.761 234.5,331.5C 235.449,324.474 236.615,317.474 238,310.5C 246.115,307.443 254.115,304.109 262,300.5C 262.948,292.922 264.448,285.589 266.5,278.5 Z"/></g>
<g><path style="opacity:1" fill="#504723" d="M 264.5,308.5 C 265.167,308.5 265.833,308.5 266.5,308.5C 270.223,312.92 273.723,317.586 277,322.5C 278.11,324.037 279.61,324.703 281.5,324.5C 280.737,325.268 279.737,325.768 278.5,326C 279.736,327.085 281.069,327.918 282.5,328.5C 281.791,329.404 280.791,329.737 279.5,329.5C 279.768,331.099 279.434,332.432 278.5,333.5C 278.66,331.801 278.494,330.134 278,328.5C 273.232,321.949 268.732,315.282 264.5,308.5 Z"/></g>
<g><path style="opacity:1" fill="#707126" d="M 234.5,309.5 C 234.59,312.152 233.924,314.485 232.5,316.5C 232.41,313.848 233.076,311.515 234.5,309.5 Z"/></g>
<g><path style="opacity:1" fill="#1a1413" d="M 261.5,305.5 C 261.833,306.167 262.167,306.833 262.5,307.5C 255.612,309.851 248.779,312.518 242,315.5C 240.329,324.871 238.496,334.204 236.5,343.5C 237.755,347.937 240.089,351.77 243.5,355C 241.008,354.421 238.675,353.254 236.5,351.5C 235.463,348.814 234.463,346.148 233.5,343.5C 234.246,339.868 234.579,336.202 234.5,332.5C 234.5,332.167 234.5,331.833 234.5,331.5C 236.463,325.761 237.796,319.761 238.5,313.5C 246.305,311.232 253.972,308.565 261.5,305.5 Z"/></g>
<g><path style="opacity:1" fill="#bcbd4b" d="M 264.5,161.5 C 265.833,161.5 267.167,161.5 268.5,161.5C 271.939,163.204 275.605,164.538 279.5,165.5C 281.942,167.226 284.609,168.726 287.5,170C 288.998,172.664 290.998,174.83 293.5,176.5C 294.433,179.37 296.1,181.704 298.5,183.5C 298.557,184.609 298.89,185.609 299.5,186.5C 299.565,189.428 300.232,192.095 301.5,194.5C 302.611,199.416 302.778,204.416 302,209.5C 300.282,213.06 298.782,216.727 297.5,220.5C 295.386,222.019 293.72,224.019 292.5,226.5C 290.229,228.235 288.229,230.235 286.5,232.5C 282.789,234.507 279.122,236.507 275.5,238.5C 270.351,239.704 265.351,241.371 260.5,243.5C 266.242,251.313 271.742,259.313 277,267.5C 275.753,275.77 274.587,284.103 273.5,292.5C 271.469,295.708 271.135,299.041 272.5,302.5C 275.105,307.977 278.439,312.977 282.5,317.5C 284.811,318.575 287.144,318.575 289.5,317.5C 291.967,317.245 293.967,316.245 295.5,314.5C 296.721,313.972 297.887,313.305 299,312.5C 299.259,309.413 299.759,306.413 300.5,303.5C 302.118,300.829 302.785,297.829 302.5,294.5C 303.638,291.696 303.805,288.696 303,285.5C 302.617,284.944 302.117,284.611 301.5,284.5C 298.273,280.399 295.273,276.066 292.5,271.5C 290.599,270.769 288.599,270.769 286.5,271.5C 284.236,272.219 281.903,272.552 279.5,272.5C 278.258,270.389 278.258,268.389 279.5,266.5C 282.573,264.431 284.906,261.764 286.5,258.5C 287.167,258.167 287.833,257.833 288.5,257.5C 290.615,255.109 293.281,253.776 296.5,253.5C 303.854,262.032 310.687,271.032 317,280.5C 317.778,287.941 317.278,295.274 315.5,302.5C 314.076,304.515 313.41,306.848 313.5,309.5C 313.212,315.628 311.546,321.294 308.5,326.5C 302.809,328.508 297.142,330.508 291.5,332.5C 289.61,332.297 288.11,332.963 287,334.5C 286.047,337.432 285.547,340.432 285.5,343.5C 283.687,350.73 282.187,358.064 281,365.5C 280.535,366.931 279.701,368.097 278.5,369C 270.384,372.038 262.218,374.872 254,377.5C 252.5,377.333 251,377.167 249.5,377C 248.944,376.617 248.611,376.117 248.5,375.5C 248.604,373.297 249.27,371.297 250.5,369.5C 251.29,368.599 252.29,367.932 253.5,367.5C 256.37,366.567 258.704,364.9 260.5,362.5C 262.617,360.704 264.95,359.038 267.5,357.5C 268.705,356.423 269.372,355.09 269.5,353.5C 271.082,350.124 271.749,346.458 271.5,342.5C 273.435,338.055 273.768,333.388 272.5,328.5C 269.559,323.558 266.226,318.891 262.5,314.5C 259.117,313.111 256.117,313.778 253.5,316.5C 250.442,316.712 247.942,318.045 246,320.5C 245.443,325.256 244.61,329.923 243.5,334.5C 241.431,338.044 241.098,341.71 242.5,345.5C 243.669,348.511 245.336,351.178 247.5,353.5C 248.15,355.435 248.483,357.435 248.5,359.5C 247.5,359.5 246.5,359.5 245.5,359.5C 246.412,358.262 246.579,356.928 246,355.5C 243.752,352.672 241.752,349.672 240,346.5C 239.82,336.404 241.32,326.57 244.5,317C 250.172,314.83 255.838,312.664 261.5,310.5C 266.846,316.359 271.68,322.692 276,329.5C 274.745,339.187 273.079,348.853 271,358.5C 264.636,363.029 258.136,367.363 251.5,371.5C 250.571,372.689 250.238,374.022 250.5,375.5C 259.749,373.765 268.749,370.932 277.5,367C 280.287,355.561 282.954,344.061 285.5,332.5C 292.917,329.752 300.251,326.919 307.5,324C 308.191,322.933 308.691,321.766 309,320.5C 311.824,307.891 313.824,295.225 315,282.5C 309.277,275.109 303.944,267.443 299,259.5C 297.705,257.878 296.205,256.545 294.5,255.5C 289.554,258.943 285.054,262.943 281,267.5C 280.217,269.319 280.717,270.652 282.5,271.5C 285.833,270.167 289.167,268.833 292.5,267.5C 297.194,273.694 301.694,280.028 306,286.5C 304.554,296.118 303.054,305.784 301.5,315.5C 295.187,317.048 289.187,319.382 283.5,322.5C 278.678,316.205 273.845,309.872 269,303.5C 271.593,291.344 273.26,279.011 274,266.5C 267.799,258.597 261.965,250.431 256.5,242C 263.621,240.071 270.621,237.737 277.5,235C 287.142,230.026 293.975,222.526 298,212.5C 303.058,191.452 295.891,176.286 276.5,167C 243.798,160.64 214.131,167.474 187.5,187.5C 186.737,186.732 185.737,186.232 184.5,186C 186.551,183.98 188.884,182.48 191.5,181.5C 197.35,179.293 202.684,176.293 207.5,172.5C 212.997,170.671 218.33,168.671 223.5,166.5C 223.833,166.5 224.167,166.5 224.5,166.5C 231.496,165.141 238.496,163.641 245.5,162C 251.825,161.5 258.158,161.334 264.5,161.5 Z M 287.5,275.5 C 285.208,277.267 282.542,278.267 279.5,278.5C 277.784,286.46 276.617,294.46 276,302.5C 278.845,306.205 281.678,309.872 284.5,313.5C 287.314,311.895 290.314,310.895 293.5,310.5C 294.96,303.2 296.293,295.867 297.5,288.5C 294.865,283.529 291.531,279.195 287.5,275.5 Z"/></g>
<g><path style="opacity:1" fill="#6f7026" d="M 295.5,314.5 C 293.967,316.245 291.967,317.245 289.5,317.5C 291.033,315.755 293.033,314.755 295.5,314.5 Z"/></g>
<g><path style="opacity:1" fill="#56571d" d="M 262.5,314.5 C 259.402,314.756 256.402,315.422 253.5,316.5C 256.117,313.778 259.117,313.111 262.5,314.5 Z"/></g>
<g><path style="opacity:1" fill="#4a4230" d="M 307.5,297.5 C 306.657,304.053 305.324,310.386 303.5,316.5C 303.618,310.409 304.451,304.409 306,298.5C 306.383,297.944 306.883,297.611 307.5,297.5 Z"/></g>
<g><path style="opacity:1" fill="#52531b" d="M 302.5,294.5 C 302.785,297.829 302.118,300.829 300.5,303.5C 300.676,300.273 301.343,297.273 302.5,294.5 Z"/></g>
<g><path style="opacity:1" fill="#4e4f1a" d="M 273.5,292.5 C 272.949,295.807 272.616,299.14 272.5,302.5C 271.135,299.041 271.469,295.708 273.5,292.5 Z"/></g>
<g><path style="opacity:1" fill="#464617" d="M 301.5,284.5 C 302.117,284.611 302.617,284.944 303,285.5C 303.805,288.696 303.638,291.696 302.5,294.5C 302.658,291.098 302.324,287.764 301.5,284.5 Z"/></g>
<g><path style="opacity:1" fill="#6a6b24" d="M 286.5,271.5 C 285.688,272.993 284.355,273.66 282.5,273.5C 281.274,273.48 280.274,273.147 279.5,272.5C 281.903,272.552 284.236,272.219 286.5,271.5 Z"/></g>
<g><path style="opacity:1" fill="#524824" d="M 293.5,258.5 C 297.898,266.954 303.065,274.954 309,282.5C 309.873,287.444 309.373,292.11 307.5,296.5C 308.112,292.837 308.279,289.17 308,285.5C 303.055,278.584 297.889,271.917 292.5,265.5C 291.713,263.896 290.38,263.229 288.5,263.5C 289.833,261.5 291.5,259.833 293.5,258.5 Z"/></g>
<g><path style="opacity:1" fill="#1d1919" d="M 288.5,263.5 C 290.38,263.229 291.713,263.896 292.5,265.5C 289.646,265.924 286.979,266.924 284.5,268.5C 284.764,266.502 286.097,264.835 288.5,263.5 Z"/></g>
<g><path style="opacity:1" fill="#6f7026" d="M 286.5,258.5 C 284.906,261.764 282.573,264.431 279.5,266.5C 281.094,263.236 283.427,260.569 286.5,258.5 Z"/></g>
<g><path style="opacity:1" fill="#3a3523" d="M 302.5,317.5 C 297.261,321.44 291.261,323.773 284.5,324.5C 289.983,321.102 295.983,318.768 302.5,317.5 Z"/></g>
<g><path style="opacity:1" fill="#6a5d28" d="M 303.5,316.5 C 303.5,318.167 303.5,319.833 303.5,321.5C 296.308,323.231 289.308,325.564 282.5,328.5C 281.069,327.918 279.736,327.085 278.5,326C 279.737,325.768 280.737,325.268 281.5,324.5C 282.5,324.5 283.5,324.5 284.5,324.5C 291.261,323.773 297.261,321.44 302.5,317.5C 302.5,316.833 302.833,316.5 303.5,316.5 Z"/></g>
<g><path style="opacity:1" fill="#8b8c31" d="M 232.5,316.5 C 232.187,320.042 232.521,323.375 233.5,326.5C 233.167,327.167 232.833,327.833 232.5,328.5C 231.833,328.833 231.167,329.167 230.5,329.5C 230.438,324.924 231.105,320.591 232.5,316.5 Z"/></g>
<g><path style="opacity:1" fill="#191211" d="M 282.5,331.5 C 281.778,331.918 281.278,332.584 281,333.5C 278.936,344.227 276.769,354.894 274.5,365.5C 268.255,368.192 261.921,370.359 255.5,372C 258.022,369.91 260.688,368.076 263.5,366.5C 266.454,365.572 269.454,364.739 272.5,364C 273.38,362.644 273.714,361.144 273.5,359.5C 275.743,351.067 277.41,342.4 278.5,333.5C 279.434,332.432 279.768,331.099 279.5,329.5C 280.791,329.737 281.791,329.404 282.5,328.5C 289.308,325.564 296.308,323.231 303.5,321.5C 303.5,319.833 303.5,318.167 303.5,316.5C 305.324,310.386 306.657,304.053 307.5,297.5C 307.5,297.167 307.5,296.833 307.5,296.5C 309.373,292.11 309.873,287.444 309,282.5C 303.065,274.954 297.898,266.954 293.5,258.5C 294.077,257.227 294.743,257.227 295.5,258.5C 301.195,266.363 306.695,274.363 312,282.5C 311.46,296.076 309.293,309.409 305.5,322.5C 297.5,324.939 289.834,327.939 282.5,331.5 Z"/></g>
<g><path style="opacity:1" fill="#a09b95" d="M 156.5,290.5 C 169.518,288.933 181.185,292.099 191.5,300C 194.456,302.763 196.79,305.929 198.5,309.5C 188.268,333.237 172.935,353.071 152.5,369C 151.207,369.49 149.873,369.657 148.5,369.5C 151.148,359.388 152.482,349.054 152.5,338.5C 151.519,323.174 151.352,307.841 152,292.5C 153.622,291.901 155.122,291.234 156.5,290.5 Z"/></g>
<g><path style="opacity:1" fill="#e7c959" d="M 189.5,304.5 C 190.925,305.922 191.925,307.589 192.5,309.5C 191.833,309.5 191.5,309.833 191.5,310.5C 186.125,310.589 180.959,311.589 176,313.5C 173.536,324.147 170.702,334.647 167.5,345C 166.387,346.394 165.053,347.561 163.5,348.5C 162.754,349.736 162.421,351.07 162.5,352.5C 161.833,353.5 161.167,354.5 160.5,355.5C 159.833,355.833 159.167,356.167 158.5,356.5C 160.56,348.953 163.394,341.286 167,333.5C 168.109,328.448 169.276,323.448 170.5,318.5C 170.5,317.167 170.5,315.833 170.5,314.5C 170.833,314.5 171.167,314.5 171.5,314.5C 176.238,311.623 180.905,308.456 185.5,305C 186.793,304.51 188.127,304.343 189.5,304.5 Z"/></g>
<g><path style="opacity:1" fill="#f1da7d" d="M 191.5,310.5 C 184.781,326.627 175.115,340.627 162.5,352.5C 162.421,351.07 162.754,349.736 163.5,348.5C 165.053,347.561 166.387,346.394 167.5,345C 170.702,334.647 173.536,324.147 176,313.5C 180.959,311.589 186.125,310.589 191.5,310.5 Z"/></g>
<g><path style="opacity:1" fill="#5d5653" d="M 194.5,307.5 C 195.478,307.811 196.145,308.478 196.5,309.5C 187.734,329.705 175.067,347.038 158.5,361.5C 158.826,359.339 159.826,357.506 161.5,356C 161.272,355.601 160.938,355.435 160.5,355.5C 161.167,354.5 161.833,353.5 162.5,352.5C 175.115,340.627 184.781,326.627 191.5,310.5C 191.5,309.833 191.833,309.5 192.5,309.5C 193.833,309.5 194.5,308.833 194.5,307.5 Z"/></g>
<g><path style="opacity:1" fill="#8e7c2a" d="M 183.5,299.5 C 185.909,300.701 187.909,302.367 189.5,304.5C 188.127,304.343 186.793,304.51 185.5,305C 180.905,308.456 176.238,311.623 171.5,314.5C 172.073,311.593 173.739,309.593 176.5,308.5C 177.721,307.972 178.887,307.305 180,306.5C 180.436,303.602 181.603,301.269 183.5,299.5 Z"/></g>
<g><path style="opacity:1" fill="#1e1815" d="M 177.5,295.5 C 181.856,296.511 185.856,298.344 189.5,301C 191.79,302.777 193.457,304.944 194.5,307.5C 194.5,308.833 193.833,309.5 192.5,309.5C 191.925,307.589 190.925,305.922 189.5,304.5C 187.909,302.367 185.909,300.701 183.5,299.5C 181.5,298.167 179.5,296.833 177.5,295.5 Z"/></g>
<g><path style="opacity:1" fill="#524718" d="M 177.5,295.5 C 179.5,296.833 181.5,298.167 183.5,299.5C 181.603,301.269 180.436,303.602 180,306.5C 178.887,307.305 177.721,307.972 176.5,308.5C 176.665,304.818 176.499,301.152 176,297.5C 174.164,295.869 174.664,295.202 177.5,295.5 Z"/></g>
<g><path style="opacity:1" fill="#2d2712" d="M 156.5,293.5 C 160.646,292.353 164.98,292.186 169.5,293C 172.457,293.279 175.123,294.113 177.5,295.5C 174.664,295.202 174.164,295.869 176,297.5C 176.499,301.152 176.665,304.818 176.5,308.5C 173.739,309.593 172.073,311.593 171.5,314.5C 171.167,314.5 170.833,314.5 170.5,314.5C 171.664,310.192 172.998,305.858 174.5,301.5C 174.333,300.167 174.167,298.833 174,297.5C 168.215,295.801 162.382,294.468 156.5,293.5 Z"/></g>
<g><path style="opacity:1" fill="#0b0906" d="M 156.5,293.5 C 162.382,294.468 168.215,295.801 174,297.5C 174.167,298.833 174.333,300.167 174.5,301.5C 172.998,305.858 171.664,310.192 170.5,314.5C 170.5,315.833 170.5,317.167 170.5,318.5C 167.643,322.212 166.143,326.545 166,331.5C 163.333,338.167 160.667,344.833 158,351.5C 156.92,353.996 155.586,356.33 154,358.5C 153.517,357.552 153.351,356.552 153.5,355.5C 153.5,334.833 153.5,314.167 153.5,293.5C 154.5,293.5 155.5,293.5 156.5,293.5 Z"/></g>
<g><path style="opacity:1" fill="#51511b" d="M 194.5,324.5 C 192.554,328.439 190.221,332.106 187.5,335.5C 188.657,331.024 190.99,327.358 194.5,324.5 Z"/></g>
<g><path style="opacity:1" fill="#67561f" d="M 170.5,318.5 C 169.276,323.448 168.109,328.448 167,333.5C 163.394,341.286 160.56,348.953 158.5,356.5C 157.109,358.89 155.109,360.557 152.5,361.5C 152.205,359.265 152.539,357.265 153.5,355.5C 153.351,356.552 153.517,357.552 154,358.5C 155.586,356.33 156.92,353.996 158,351.5C 160.667,344.833 163.333,338.167 166,331.5C 166.143,326.545 167.643,322.212 170.5,318.5 Z"/></g>
<g><path style="opacity:1" fill="#362d2d" d="M 282.5,331.5 C 280.829,342.521 278.995,353.521 277,364.5C 276.329,365.252 275.496,365.586 274.5,365.5C 276.769,354.894 278.936,344.227 281,333.5C 281.278,332.584 281.778,331.918 282.5,331.5 Z"/></g>
<g><path style="opacity:1" fill="#423b27" d="M 234.5,332.5 C 234.579,336.202 234.246,339.868 233.5,343.5C 234.463,346.148 235.463,348.814 236.5,351.5C 233.82,350.513 232.154,348.68 231.5,346C 232.332,341.326 233.332,336.826 234.5,332.5 Z"/></g>
<g><path style="opacity:1" fill="#353614" d="M 291.5,332.5 C 290.312,333.364 289.145,334.364 288,335.5C 287.902,338.522 287.068,341.189 285.5,343.5C 285.547,340.432 286.047,337.432 287,334.5C 288.11,332.963 289.61,332.297 291.5,332.5 Z"/></g>
<g><path style="opacity:1" fill="#494a18" d="M 243.5,334.5 C 243.058,338.154 242.724,341.821 242.5,345.5C 241.098,341.71 241.431,338.044 243.5,334.5 Z"/></g>
<g><path style="opacity:1" fill="#5b5b1f" d="M 271.5,342.5 C 271.749,346.458 271.082,350.124 269.5,353.5C 269.646,349.613 270.313,345.946 271.5,342.5 Z"/></g>
<g><path style="opacity:1" fill="#b8b949" d="M 232.5,328.5 C 231.909,334.891 230.909,341.224 229.5,347.5C 234.101,352.468 239.434,356.468 245.5,359.5C 244.001,360.494 242.334,360.494 240.5,359.5C 237.991,357.745 235.324,356.245 232.5,355C 231.12,353.075 229.62,351.241 228,349.5C 227.487,342.612 228.32,335.945 230.5,329.5C 231.167,329.167 231.833,328.833 232.5,328.5 Z"/></g>
<g><path style="opacity:1" fill="#564e3c" d="M 278.5,333.5 C 277.41,342.4 275.743,351.067 273.5,359.5C 274.432,351.144 275.598,342.811 277,334.5C 277.383,333.944 277.883,333.611 278.5,333.5 Z"/></g>
<g><path style="opacity:1" fill="#484818" d="M 179.5,346.5 C 177.883,349.784 175.55,352.451 172.5,354.5C 174.146,351.19 176.48,348.523 179.5,346.5 Z"/></g>
<g><path style="opacity:1" fill="#5c5d1f" d="M 149.5,351.5 C 149.664,354.187 149.497,356.854 149,359.5C 148.722,360.416 148.222,361.082 147.5,361.5C 147.753,357.96 148.419,354.627 149.5,351.5 Z"/></g>
<g><path style="opacity:1" fill="#333413" d="M 172.5,354.5 C 170.855,358.145 168.188,360.812 164.5,362.5C 166.785,359.548 169.452,356.882 172.5,354.5 Z"/></g>
<g><path style="opacity:1" fill="#211a19" d="M 160.5,355.5 C 160.938,355.435 161.272,355.601 161.5,356C 159.826,357.506 158.826,359.339 158.5,361.5C 156.495,363.334 154.328,365.001 152,366.5C 152.019,364.893 152.185,363.226 152.5,361.5C 155.109,360.557 157.109,358.89 158.5,356.5C 159.167,356.167 159.833,355.833 160.5,355.5 Z"/></g>
<g><path style="opacity:1" fill="#3f4016" d="M 247.5,353.5 C 248.993,354.312 249.66,355.645 249.5,357.5C 249.43,358.772 249.097,359.938 248.5,361C 246.167,361.667 243.833,361.667 241.5,361C 240.944,360.617 240.611,360.117 240.5,359.5C 242.334,360.494 244.001,360.494 245.5,359.5C 246.5,359.5 247.5,359.5 248.5,359.5C 248.483,357.435 248.15,355.435 247.5,353.5 Z"/></g>
<g><path style="opacity:1" fill="#4e4424" d="M 273.5,359.5 C 273.714,361.144 273.38,362.644 272.5,364C 269.454,364.739 266.454,365.572 263.5,366.5C 266.446,363.687 269.779,361.354 273.5,359.5 Z"/></g>
<g><path style="opacity:1" fill="#57581d" d="M 260.5,362.5 C 258.704,364.9 256.37,366.567 253.5,367.5C 255.296,365.1 257.63,363.433 260.5,362.5 Z"/></g>
<g><path style="opacity:1" fill="#4d4d1a" d="M 250.5,369.5 C 249.27,371.297 248.604,373.297 248.5,375.5C 247.387,374.054 247.22,372.387 248,370.5C 248.671,369.748 249.504,369.414 250.5,369.5 Z"/></g>
</svg>
